%TF.GenerationSoftware,KiCad,Pcbnew,7.0.8*%
%TF.CreationDate,2024-12-11T19:53:01+01:00*%
%TF.ProjectId,TP4056-module-adapter,54503430-3536-42d6-9d6f-64756c652d61,rev?*%
%TF.SameCoordinates,Original*%
%TF.FileFunction,Copper,L1,Top*%
%TF.FilePolarity,Positive*%
%FSLAX46Y46*%
G04 Gerber Fmt 4.6, Leading zero omitted, Abs format (unit mm)*
G04 Created by KiCad (PCBNEW 7.0.8) date 2024-12-11 19:53:01*
%MOMM*%
%LPD*%
G01*
G04 APERTURE LIST*
G04 Aperture macros list*
%AMRoundRect*
0 Rectangle with rounded corners*
0 $1 Rounding radius*
0 $2 $3 $4 $5 $6 $7 $8 $9 X,Y pos of 4 corners*
0 Add a 4 corners polygon primitive as box body*
4,1,4,$2,$3,$4,$5,$6,$7,$8,$9,$2,$3,0*
0 Add four circle primitives for the rounded corners*
1,1,$1+$1,$2,$3*
1,1,$1+$1,$4,$5*
1,1,$1+$1,$6,$7*
1,1,$1+$1,$8,$9*
0 Add four rect primitives between the rounded corners*
20,1,$1+$1,$2,$3,$4,$5,0*
20,1,$1+$1,$4,$5,$6,$7,0*
20,1,$1+$1,$6,$7,$8,$9,0*
20,1,$1+$1,$8,$9,$2,$3,0*%
G04 Aperture macros list end*
%TA.AperFunction,ComponentPad*%
%ADD10C,3.800000*%
%TD*%
%TA.AperFunction,ComponentPad*%
%ADD11R,1.700000X1.700000*%
%TD*%
%TA.AperFunction,ComponentPad*%
%ADD12O,1.700000X1.700000*%
%TD*%
%TA.AperFunction,SMDPad,CuDef*%
%ADD13RoundRect,0.150000X0.587500X0.150000X-0.587500X0.150000X-0.587500X-0.150000X0.587500X-0.150000X0*%
%TD*%
%TA.AperFunction,SMDPad,CuDef*%
%ADD14RoundRect,0.250000X-0.450000X0.262500X-0.450000X-0.262500X0.450000X-0.262500X0.450000X0.262500X0*%
%TD*%
%TA.AperFunction,SMDPad,CuDef*%
%ADD15RoundRect,0.250000X1.000000X0.650000X-1.000000X0.650000X-1.000000X-0.650000X1.000000X-0.650000X0*%
%TD*%
%TA.AperFunction,SMDPad,CuDef*%
%ADD16RoundRect,0.150000X-0.587500X-0.150000X0.587500X-0.150000X0.587500X0.150000X-0.587500X0.150000X0*%
%TD*%
%TA.AperFunction,SMDPad,CuDef*%
%ADD17RoundRect,0.250000X0.450000X-0.262500X0.450000X0.262500X-0.450000X0.262500X-0.450000X-0.262500X0*%
%TD*%
%TA.AperFunction,SMDPad,CuDef*%
%ADD18RoundRect,0.250000X-0.375000X-0.625000X0.375000X-0.625000X0.375000X0.625000X-0.375000X0.625000X0*%
%TD*%
%TA.AperFunction,ViaPad*%
%ADD19C,0.800000*%
%TD*%
%TA.AperFunction,Conductor*%
%ADD20C,0.500000*%
%TD*%
G04 APERTURE END LIST*
D10*
%TO.P,H1,1*%
%TO.N,N/C*%
X118300000Y-78100000D03*
%TD*%
D11*
%TO.P,J3,1,Pin_1*%
%TO.N,GND*%
X128230000Y-79995000D03*
D12*
%TO.P,J3,2,Pin_2*%
%TO.N,VCC*%
X128230000Y-77455000D03*
%TO.P,J3,3,Pin_3*%
X128230000Y-74915000D03*
%TD*%
D13*
%TO.P,Q2,1,G*%
%TO.N,Net-(Q1-G)*%
X121875000Y-81750000D03*
%TO.P,Q2,2,S*%
%TO.N,VCC*%
X121875000Y-79850000D03*
%TO.P,Q2,3,D*%
%TO.N,Net-(Q1-D)*%
X120000000Y-80800000D03*
%TD*%
D14*
%TO.P,R2,1*%
%TO.N,VBUS*%
X114300000Y-73255500D03*
%TO.P,R2,2*%
%TO.N,GND*%
X114300000Y-75080500D03*
%TD*%
D15*
%TO.P,D1,1,K*%
%TO.N,VCC*%
X121380000Y-74168000D03*
%TO.P,D1,2,A*%
%TO.N,VBUS*%
X117380000Y-74168000D03*
%TD*%
D11*
%TO.P,J1,1,Pin_1*%
%TO.N,GND*%
X105410000Y-73660000D03*
D12*
%TO.P,J1,2,Pin_2*%
%TO.N,VBUS*%
X107950000Y-73660000D03*
%TD*%
D16*
%TO.P,Q1,1,G*%
%TO.N,Net-(Q1-G)*%
X113362500Y-79822000D03*
%TO.P,Q1,2,S*%
%TO.N,LINE*%
X113362500Y-81722000D03*
%TO.P,Q1,3,D*%
%TO.N,Net-(Q1-D)*%
X115237500Y-80772000D03*
%TD*%
D17*
%TO.P,R1,1*%
%TO.N,Net-(Q1-G)*%
X111760000Y-75080500D03*
%TO.P,R1,2*%
%TO.N,VBUS*%
X111760000Y-73255500D03*
%TD*%
D11*
%TO.P,J2,1,Pin_1*%
%TO.N,+BATT*%
X105410000Y-81280000D03*
D12*
%TO.P,J2,2,Pin_2*%
%TO.N,LINE*%
X107950000Y-81280000D03*
%TD*%
D18*
%TO.P,F1,1*%
%TO.N,+BATT*%
X105280000Y-77470000D03*
%TO.P,F1,2*%
%TO.N,LINE*%
X108080000Y-77470000D03*
%TD*%
D19*
%TO.N,GND*%
X110000000Y-83000000D03*
X113000000Y-83000000D03*
X112000000Y-83000000D03*
X116000000Y-83000000D03*
X114000000Y-83000000D03*
X115000000Y-83000000D03*
X125900000Y-81400000D03*
X123900000Y-81400000D03*
X124900000Y-81400000D03*
X126900000Y-81400000D03*
X125400000Y-82300000D03*
X123400000Y-82300000D03*
X124400000Y-82300000D03*
X115750000Y-76400000D03*
X111000000Y-83000000D03*
X109750000Y-76000000D03*
X119380000Y-74168000D03*
X112800000Y-77900000D03*
X110250000Y-72000000D03*
X115500000Y-77800000D03*
X105750000Y-72000000D03*
X126400000Y-82300000D03*
X128400000Y-82300000D03*
X110500000Y-79000000D03*
X129400000Y-82300000D03*
X127400000Y-82300000D03*
X113000000Y-72000000D03*
X104750000Y-72000000D03*
%TO.N,Net-(Q1-G)*%
X119100000Y-82200000D03*
X114800000Y-79822000D03*
%TD*%
D20*
%TO.N,Net-(Q1-G)*%
X119964214Y-81750010D02*
G75*
G03*
X119257107Y-82042893I-14J-999990D01*
G01*
X119100000Y-82200000D02*
X119257107Y-82042893D01*
X119964214Y-81750000D02*
X121875000Y-81750000D01*
X114800000Y-79822000D02*
X113362500Y-79822000D01*
%TO.N,VCC*%
X125922100Y-74622114D02*
G75*
G03*
X126629214Y-74915000I707100J707114D01*
G01*
X125760900Y-74460886D02*
G75*
G03*
X125053786Y-74168000I-707100J-707114D01*
G01*
X122835786Y-79849990D02*
G75*
G03*
X123542893Y-79557107I14J999990D01*
G01*
X126059214Y-77455010D02*
G75*
G03*
X125352107Y-77747893I-14J-999990D01*
G01*
X126629214Y-74915000D02*
X128230000Y-74915000D01*
X121380000Y-74168000D02*
X125053786Y-74168000D01*
X125760893Y-74460893D02*
X125922107Y-74622107D01*
X128230000Y-74915000D02*
X128230000Y-77455000D01*
X126059214Y-77455000D02*
X128230000Y-77455000D01*
X123542893Y-79557107D02*
X125352107Y-77747893D01*
X121875000Y-79850000D02*
X122835786Y-79850000D01*
%TO.N,Net-(Q1-D)*%
X119972000Y-80772000D02*
X120000000Y-80800000D01*
X115237500Y-80772000D02*
X119972000Y-80772000D01*
%TO.N,VBUS*%
X114300000Y-73255500D02*
X114958393Y-73255500D01*
X108354500Y-73255500D02*
X107950000Y-73660000D01*
X111760000Y-73255500D02*
X108354500Y-73255500D01*
X111760000Y-73255500D02*
X114300000Y-73255500D01*
X116285107Y-74168000D02*
X117380000Y-74168000D01*
X115311947Y-73401947D02*
X115931554Y-74021554D01*
X115311950Y-73401944D02*
G75*
G03*
X114958393Y-73255500I-353550J-353556D01*
G01*
X115931551Y-74021557D02*
G75*
G03*
X116285107Y-74168000I353549J353557D01*
G01*
%TO.N,+BATT*%
X105410000Y-77600000D02*
X105280000Y-77470000D01*
X105410000Y-81280000D02*
X105410000Y-77600000D01*
%TO.N,Net-(Q1-G)*%
X111760000Y-75080500D02*
X111760000Y-79040893D01*
X111906447Y-79394447D02*
X112187554Y-79675554D01*
X112541107Y-79822000D02*
X113362500Y-79822000D01*
X112187551Y-79675557D02*
G75*
G03*
X112541107Y-79822000I353549J353557D01*
G01*
X111760005Y-79040893D02*
G75*
G03*
X111906447Y-79394447I499995J-7D01*
G01*
%TO.N,LINE*%
X108080000Y-81150000D02*
X107950000Y-81280000D01*
X108392000Y-81722000D02*
X107950000Y-81280000D01*
X113362500Y-81722000D02*
X108392000Y-81722000D01*
X108080000Y-77470000D02*
X108080000Y-81150000D01*
%TD*%
%TA.AperFunction,Conductor*%
%TO.N,GND*%
G36*
X124837539Y-71394185D02*
G01*
X124883294Y-71446989D01*
X124894500Y-71498500D01*
X124894500Y-72936853D01*
X124874815Y-73003892D01*
X124838660Y-73040439D01*
X124296648Y-73397086D01*
X124229825Y-73417493D01*
X124228488Y-73417500D01*
X123712331Y-73417500D01*
X123648654Y-73399901D01*
X122742242Y-72857452D01*
X122731575Y-72852539D01*
X122724963Y-72848993D01*
X122699337Y-72833187D01*
X122699332Y-72833185D01*
X122667799Y-72822736D01*
X122661360Y-72820195D01*
X122643610Y-72812019D01*
X122643602Y-72812016D01*
X122643601Y-72812016D01*
X122638864Y-72810425D01*
X122621115Y-72804825D01*
X122621112Y-72804824D01*
X122621102Y-72804822D01*
X122618765Y-72804482D01*
X122597626Y-72799482D01*
X122532800Y-72778001D01*
X122430010Y-72767500D01*
X120329998Y-72767500D01*
X120329981Y-72767501D01*
X120227203Y-72778000D01*
X120227200Y-72778001D01*
X120060668Y-72833185D01*
X120060663Y-72833187D01*
X119911342Y-72925289D01*
X119787289Y-73049342D01*
X119695187Y-73198663D01*
X119695186Y-73198666D01*
X119640001Y-73365203D01*
X119640001Y-73365204D01*
X119640000Y-73365204D01*
X119629500Y-73467983D01*
X119629500Y-74868001D01*
X119629501Y-74868018D01*
X119640000Y-74970796D01*
X119640001Y-74970799D01*
X119695185Y-75137331D01*
X119695186Y-75137334D01*
X119787288Y-75286656D01*
X119911344Y-75410712D01*
X120060666Y-75502814D01*
X120227203Y-75557999D01*
X120329991Y-75568500D01*
X122430008Y-75568499D01*
X122532797Y-75557999D01*
X122594056Y-75537698D01*
X122601220Y-75535792D01*
X122609524Y-75534109D01*
X122624943Y-75527653D01*
X122629347Y-75526004D01*
X122699334Y-75502814D01*
X122722889Y-75488284D01*
X122740107Y-75479439D01*
X122742243Y-75478546D01*
X122742255Y-75478539D01*
X123648653Y-74936099D01*
X123712330Y-74918500D01*
X124209497Y-74918500D01*
X124272957Y-74935969D01*
X124833962Y-75270164D01*
X124881481Y-75321383D01*
X124894500Y-75376693D01*
X124894500Y-75852927D01*
X124889540Y-75887647D01*
X124379016Y-77638012D01*
X124347657Y-77690973D01*
X123015092Y-79023540D01*
X123008988Y-79028893D01*
X122997314Y-79037851D01*
X122978325Y-79052422D01*
X122973495Y-79056128D01*
X122945459Y-79072314D01*
X122916330Y-79084379D01*
X122852228Y-79092694D01*
X122583082Y-79056222D01*
X122565139Y-79052422D01*
X122565075Y-79052403D01*
X122565065Y-79052401D01*
X122542522Y-79050626D01*
X122539078Y-79050258D01*
X122534046Y-79049577D01*
X122525348Y-79048474D01*
X122525335Y-79048473D01*
X122485007Y-79049500D01*
X121221804Y-79049500D01*
X121184932Y-79052401D01*
X121184926Y-79052402D01*
X121027106Y-79098254D01*
X121027103Y-79098255D01*
X120885637Y-79181917D01*
X120885629Y-79181923D01*
X120769423Y-79298129D01*
X120769417Y-79298137D01*
X120685755Y-79439603D01*
X120685754Y-79439606D01*
X120639902Y-79597426D01*
X120639901Y-79597432D01*
X120637000Y-79634304D01*
X120637000Y-79875500D01*
X120617315Y-79942539D01*
X120564511Y-79988294D01*
X120513000Y-79999500D01*
X120097124Y-79999500D01*
X120030085Y-79979815D01*
X119984330Y-79927011D01*
X119974386Y-79857853D01*
X120003411Y-79794297D01*
X120012240Y-79785108D01*
X120053349Y-79746504D01*
X120245885Y-79513768D01*
X120407733Y-79258736D01*
X120536341Y-78985430D01*
X120629681Y-78698160D01*
X120686280Y-78401457D01*
X120691052Y-78325611D01*
X120705246Y-78100005D01*
X120705246Y-78099994D01*
X120686281Y-77798553D01*
X120686280Y-77798546D01*
X120686280Y-77798543D01*
X120629681Y-77501840D01*
X120536341Y-77214570D01*
X120407733Y-76941264D01*
X120314906Y-76794992D01*
X120245888Y-76686236D01*
X120113053Y-76525666D01*
X120053349Y-76453496D01*
X119833162Y-76246726D01*
X119833159Y-76246724D01*
X119833153Y-76246719D01*
X119588806Y-76069191D01*
X119588799Y-76069186D01*
X119588795Y-76069184D01*
X119324104Y-75923668D01*
X119324101Y-75923666D01*
X119324096Y-75923664D01*
X119324095Y-75923663D01*
X119043265Y-75812475D01*
X119043262Y-75812474D01*
X118750697Y-75737357D01*
X118740735Y-75736099D01*
X118676693Y-75708165D01*
X118637919Y-75650041D01*
X118636724Y-75580182D01*
X118673488Y-75520766D01*
X118693693Y-75507426D01*
X118693187Y-75506605D01*
X118699332Y-75502814D01*
X118699334Y-75502814D01*
X118848656Y-75410712D01*
X118972712Y-75286656D01*
X119064814Y-75137334D01*
X119119999Y-74970797D01*
X119130500Y-74868009D01*
X119130499Y-73467992D01*
X119125340Y-73417493D01*
X119119999Y-73365203D01*
X119119998Y-73365200D01*
X119064814Y-73198666D01*
X118972712Y-73049344D01*
X118848656Y-72925288D01*
X118738676Y-72857452D01*
X118699336Y-72833187D01*
X118699331Y-72833185D01*
X118666844Y-72822420D01*
X118532797Y-72778001D01*
X118532795Y-72778000D01*
X118430016Y-72767500D01*
X118430009Y-72767500D01*
X116343225Y-72767500D01*
X116313494Y-72766865D01*
X116313487Y-72766865D01*
X115858171Y-72822420D01*
X115789241Y-72811000D01*
X115770269Y-72799652D01*
X115613793Y-72685969D01*
X115434073Y-72594400D01*
X115434324Y-72593906D01*
X115416251Y-72583819D01*
X115368480Y-72549337D01*
X115343781Y-72525696D01*
X115342712Y-72524344D01*
X115287148Y-72468780D01*
X115218656Y-72400288D01*
X115096495Y-72324939D01*
X115069336Y-72308187D01*
X115069331Y-72308185D01*
X115065513Y-72306920D01*
X114902797Y-72253001D01*
X114902795Y-72253000D01*
X114800010Y-72242500D01*
X113799998Y-72242500D01*
X113799980Y-72242501D01*
X113697200Y-72253001D01*
X113611590Y-72281369D01*
X113604845Y-72283190D01*
X113574334Y-72289607D01*
X113072527Y-72472824D01*
X113002803Y-72477326D01*
X112987471Y-72472824D01*
X112603780Y-72332733D01*
X112485661Y-72289606D01*
X112485657Y-72289605D01*
X112485652Y-72289603D01*
X112413035Y-72269086D01*
X112409170Y-72268148D01*
X112404294Y-72266751D01*
X112362799Y-72253001D01*
X112260010Y-72242500D01*
X111259998Y-72242500D01*
X111259980Y-72242501D01*
X111157200Y-72253001D01*
X111071590Y-72281369D01*
X111064845Y-72283190D01*
X111034334Y-72289607D01*
X110465004Y-72497479D01*
X110422476Y-72505000D01*
X109608645Y-72505000D01*
X109588487Y-72503035D01*
X109588481Y-72503088D01*
X109586452Y-72502837D01*
X109584704Y-72502667D01*
X109584080Y-72502544D01*
X108222959Y-72334379D01*
X108214505Y-72332733D01*
X108185418Y-72324939D01*
X108185403Y-72324936D01*
X108052197Y-72313282D01*
X108017415Y-72308985D01*
X108002019Y-72307560D01*
X107992897Y-72306996D01*
X107992888Y-72306996D01*
X107986255Y-72307141D01*
X107979488Y-72306920D01*
X107950004Y-72304341D01*
X107949999Y-72304341D01*
X107714596Y-72324936D01*
X107714586Y-72324938D01*
X107486344Y-72386094D01*
X107486335Y-72386098D01*
X107272171Y-72485964D01*
X107272169Y-72485965D01*
X107078597Y-72621505D01*
X106911505Y-72788597D01*
X106775965Y-72982169D01*
X106775964Y-72982171D01*
X106676098Y-73196335D01*
X106676094Y-73196344D01*
X106614938Y-73424586D01*
X106614936Y-73424596D01*
X106594341Y-73659999D01*
X106594341Y-73660000D01*
X106614936Y-73895403D01*
X106614938Y-73895413D01*
X106676094Y-74123655D01*
X106676096Y-74123659D01*
X106676097Y-74123663D01*
X106753008Y-74288598D01*
X106775965Y-74337830D01*
X106775967Y-74337834D01*
X106884281Y-74492521D01*
X106911505Y-74531401D01*
X107078599Y-74698495D01*
X107175384Y-74766265D01*
X107272165Y-74834032D01*
X107272167Y-74834033D01*
X107272170Y-74834035D01*
X107486337Y-74933903D01*
X107486343Y-74933904D01*
X107486344Y-74933905D01*
X107525916Y-74944508D01*
X107714592Y-74995063D01*
X107902918Y-75011539D01*
X107949999Y-75015659D01*
X107950000Y-75015659D01*
X107950001Y-75015659D01*
X107989234Y-75012226D01*
X108185408Y-74995063D01*
X108413663Y-74933903D01*
X108627830Y-74834035D01*
X108821401Y-74698495D01*
X108849926Y-74669968D01*
X108864243Y-74658272D01*
X108864047Y-74658017D01*
X108867554Y-74655316D01*
X108867559Y-74655314D01*
X109677472Y-74031747D01*
X109742601Y-74006447D01*
X109753119Y-74006000D01*
X110422482Y-74006000D01*
X110465009Y-74013520D01*
X110713187Y-74104134D01*
X110769407Y-74145616D01*
X110794277Y-74210910D01*
X110779898Y-74279284D01*
X110758339Y-74308292D01*
X110717289Y-74349342D01*
X110625187Y-74498663D01*
X110625185Y-74498668D01*
X110614338Y-74531402D01*
X110570001Y-74665203D01*
X110570001Y-74665204D01*
X110570000Y-74665204D01*
X110559500Y-74767983D01*
X110559500Y-75393001D01*
X110559501Y-75393019D01*
X110570000Y-75495796D01*
X110570001Y-75495799D01*
X110625185Y-75662331D01*
X110625187Y-75662336D01*
X110717289Y-75811657D01*
X110841345Y-75935713D01*
X110847013Y-75940195D01*
X110845640Y-75941931D01*
X110883976Y-75983830D01*
X110996406Y-76208659D01*
X111009500Y-76264119D01*
X111009500Y-79085437D01*
X111009503Y-79085506D01*
X111009503Y-79139304D01*
X111040292Y-79333707D01*
X111101115Y-79520912D01*
X111101117Y-79520915D01*
X111190474Y-79696291D01*
X111306168Y-79855534D01*
X111312901Y-79862268D01*
X111312929Y-79862298D01*
X111395569Y-79944937D01*
X111433659Y-79983029D01*
X111433679Y-79983047D01*
X111581072Y-80130439D01*
X111598944Y-80148311D01*
X111598962Y-80148331D01*
X111620552Y-80169920D01*
X111620560Y-80169935D01*
X111700082Y-80249455D01*
X111726465Y-80275838D01*
X111790715Y-80322517D01*
X111885706Y-80391531D01*
X111885707Y-80391531D01*
X111885708Y-80391532D01*
X111973915Y-80436474D01*
X111977463Y-80438432D01*
X112004281Y-80454409D01*
X112016396Y-80458707D01*
X112023796Y-80461888D01*
X112061089Y-80480890D01*
X112248290Y-80541713D01*
X112442701Y-80572502D01*
X112476065Y-80572501D01*
X112500465Y-80574925D01*
X112556848Y-80586247D01*
X112561907Y-80587487D01*
X112672431Y-80619598D01*
X112684722Y-80620565D01*
X112709304Y-80622500D01*
X112709306Y-80622500D01*
X113875500Y-80622500D01*
X113942539Y-80642185D01*
X113988294Y-80694989D01*
X113999500Y-80746500D01*
X113999500Y-80797500D01*
X113979815Y-80864539D01*
X113927011Y-80910294D01*
X113875500Y-80921500D01*
X112762995Y-80921500D01*
X112715692Y-80919979D01*
X112715691Y-80919979D01*
X112715690Y-80919979D01*
X112715682Y-80919979D01*
X112698231Y-80921918D01*
X112684270Y-80923470D01*
X112672431Y-80924402D01*
X112672429Y-80924402D01*
X112672421Y-80924403D01*
X112669193Y-80924992D01*
X112664908Y-80925620D01*
X112279581Y-80968435D01*
X112261480Y-80970922D01*
X112253031Y-80971500D01*
X109740401Y-80971500D01*
X109673362Y-80951815D01*
X109661245Y-80942948D01*
X109640350Y-80925620D01*
X109307608Y-80649674D01*
X109155104Y-80523201D01*
X109116067Y-80465254D01*
X109115505Y-80463436D01*
X109115042Y-80461896D01*
X108884999Y-79696290D01*
X108835745Y-79532368D01*
X108830500Y-79496685D01*
X108830500Y-79117906D01*
X108841709Y-79066387D01*
X108848088Y-79052422D01*
X109137174Y-78419520D01*
X109138904Y-78416284D01*
X109139809Y-78414340D01*
X109139814Y-78414334D01*
X109139816Y-78414326D01*
X109140219Y-78413463D01*
X109141932Y-78409103D01*
X109142703Y-78407417D01*
X109171687Y-78326298D01*
X109172701Y-78322453D01*
X109172702Y-78322442D01*
X109173506Y-78318228D01*
X109173729Y-78318270D01*
X109178012Y-78299058D01*
X109182396Y-78285829D01*
X109194999Y-78247797D01*
X109205500Y-78145009D01*
X109205499Y-76794992D01*
X109194999Y-76692203D01*
X109139814Y-76525666D01*
X109047712Y-76376344D01*
X108923656Y-76252288D01*
X108774334Y-76160186D01*
X108607797Y-76105001D01*
X108607795Y-76105000D01*
X108505010Y-76094500D01*
X107654998Y-76094500D01*
X107654980Y-76094501D01*
X107552203Y-76105000D01*
X107552200Y-76105001D01*
X107385668Y-76160185D01*
X107385663Y-76160187D01*
X107236342Y-76252289D01*
X107112289Y-76376342D01*
X107020187Y-76525663D01*
X107020186Y-76525666D01*
X106965001Y-76692203D01*
X106965001Y-76692204D01*
X106965000Y-76692204D01*
X106954500Y-76794983D01*
X106954500Y-78145001D01*
X106954501Y-78145018D01*
X106965000Y-78247796D01*
X106965001Y-78247800D01*
X107012631Y-78391537D01*
X107017293Y-78407411D01*
X107017295Y-78407416D01*
X107017296Y-78407418D01*
X107018076Y-78409127D01*
X107019774Y-78413450D01*
X107021099Y-78416291D01*
X107022823Y-78419520D01*
X107318291Y-79066389D01*
X107329500Y-79117908D01*
X107329500Y-79448920D01*
X107316708Y-79503771D01*
X106949675Y-80247912D01*
X106902367Y-80299329D01*
X106834770Y-80317006D01*
X106768347Y-80295331D01*
X106728033Y-80249455D01*
X106727245Y-80247912D01*
X106725225Y-80243953D01*
X106722363Y-80237450D01*
X106703796Y-80187669D01*
X106687241Y-80165554D01*
X106676058Y-80147607D01*
X106667297Y-80130439D01*
X106183196Y-79444629D01*
X106160617Y-79378508D01*
X106160500Y-79373120D01*
X106160500Y-79076666D01*
X106165405Y-79042134D01*
X106166648Y-79037849D01*
X106271567Y-78676000D01*
X106373160Y-78325627D01*
X106373160Y-78325626D01*
X106378861Y-78301658D01*
X106380299Y-78293959D01*
X106382391Y-78285840D01*
X106394999Y-78247797D01*
X106405500Y-78145009D01*
X106405499Y-76794992D01*
X106394999Y-76692203D01*
X106339814Y-76525666D01*
X106247712Y-76376344D01*
X106123656Y-76252288D01*
X105974334Y-76160186D01*
X105807797Y-76105001D01*
X105807795Y-76105000D01*
X105705010Y-76094500D01*
X104854998Y-76094500D01*
X104854980Y-76094501D01*
X104752203Y-76105000D01*
X104752200Y-76105001D01*
X104585668Y-76160185D01*
X104585663Y-76160187D01*
X104436342Y-76252289D01*
X104312289Y-76376342D01*
X104220187Y-76525663D01*
X104220186Y-76525666D01*
X104165001Y-76692203D01*
X104165001Y-76692204D01*
X104165000Y-76692204D01*
X104154500Y-76794983D01*
X104154500Y-78145001D01*
X104154501Y-78145018D01*
X104165000Y-78247796D01*
X104165001Y-78247799D01*
X104220185Y-78414331D01*
X104220187Y-78414336D01*
X104312290Y-78563659D01*
X104317426Y-78570154D01*
X104321510Y-78575976D01*
X104640329Y-79090929D01*
X104640929Y-79091897D01*
X104659500Y-79157171D01*
X104659500Y-79373119D01*
X104639815Y-79440158D01*
X104636804Y-79444628D01*
X104459160Y-79696291D01*
X104152700Y-80130442D01*
X104148941Y-80135891D01*
X104146494Y-80139438D01*
X104146485Y-80139453D01*
X104141097Y-80150600D01*
X104128727Y-80170938D01*
X104116204Y-80187666D01*
X104116202Y-80187671D01*
X104093632Y-80248183D01*
X104091363Y-80253495D01*
X104083879Y-80268981D01*
X104083878Y-80268985D01*
X104081739Y-80275722D01*
X104081737Y-80275729D01*
X104081737Y-80275730D01*
X104081736Y-80275733D01*
X104079358Y-80285312D01*
X104077274Y-80292043D01*
X104065909Y-80322516D01*
X104065908Y-80322517D01*
X104059501Y-80382116D01*
X104059500Y-80382135D01*
X104059500Y-82177870D01*
X104059501Y-82177876D01*
X104065908Y-82237483D01*
X104116202Y-82372328D01*
X104116206Y-82372335D01*
X104202452Y-82487544D01*
X104202455Y-82487547D01*
X104317664Y-82573793D01*
X104317671Y-82573797D01*
X104452517Y-82624091D01*
X104452516Y-82624091D01*
X104459444Y-82624835D01*
X104512127Y-82630500D01*
X106307872Y-82630499D01*
X106367483Y-82624091D01*
X106502331Y-82573796D01*
X106617546Y-82487546D01*
X106703796Y-82372331D01*
X106752810Y-82240916D01*
X106794681Y-82184984D01*
X106860145Y-82160566D01*
X106928418Y-82175417D01*
X106956673Y-82196569D01*
X107078599Y-82318495D01*
X107175384Y-82386265D01*
X107272165Y-82454032D01*
X107272167Y-82454033D01*
X107272170Y-82454035D01*
X107486337Y-82553903D01*
X107714592Y-82615063D01*
X107950000Y-82635659D01*
X107997962Y-82631461D01*
X108005949Y-82631280D01*
X108013889Y-82631612D01*
X108124348Y-82620405D01*
X108185408Y-82615063D01*
X108185413Y-82615061D01*
X108190742Y-82614122D01*
X108190801Y-82614459D01*
X108200462Y-82612682D01*
X109433854Y-82487547D01*
X109547815Y-82475985D01*
X109570617Y-82473019D01*
X109578624Y-82472500D01*
X112251957Y-82472500D01*
X112275107Y-82475450D01*
X112275234Y-82474763D01*
X112279576Y-82475561D01*
X112279585Y-82475564D01*
X112664907Y-82518376D01*
X112669210Y-82519008D01*
X112672422Y-82519595D01*
X112672431Y-82519598D01*
X112684301Y-82520532D01*
X112715692Y-82524020D01*
X112718374Y-82524311D01*
X112766674Y-82522500D01*
X114015694Y-82522500D01*
X114015696Y-82522500D01*
X114034131Y-82521049D01*
X114052569Y-82519598D01*
X114052571Y-82519597D01*
X114052573Y-82519597D01*
X114118304Y-82500500D01*
X114210398Y-82473744D01*
X114351865Y-82390081D01*
X114468081Y-82273865D01*
X114551744Y-82132398D01*
X114597598Y-81974569D01*
X114600500Y-81937694D01*
X114600500Y-81696500D01*
X114620185Y-81629461D01*
X114672989Y-81583706D01*
X114724500Y-81572500D01*
X115837035Y-81572500D01*
X115884307Y-81574020D01*
X115884316Y-81574019D01*
X115884317Y-81574019D01*
X115900014Y-81572274D01*
X115915695Y-81570532D01*
X115927569Y-81569598D01*
X115927578Y-81569595D01*
X115930794Y-81569008D01*
X115935104Y-81568375D01*
X116320413Y-81525565D01*
X116335286Y-81523521D01*
X116338514Y-81523077D01*
X116346961Y-81522500D01*
X118236573Y-81522500D01*
X118303612Y-81542185D01*
X118349367Y-81594989D01*
X118359311Y-81664147D01*
X118343960Y-81708500D01*
X118272821Y-81831715D01*
X118272818Y-81831722D01*
X118217307Y-82002569D01*
X118214326Y-82011744D01*
X118194540Y-82200000D01*
X118214326Y-82388256D01*
X118214327Y-82388259D01*
X118272818Y-82568277D01*
X118272821Y-82568284D01*
X118367467Y-82732216D01*
X118453884Y-82828191D01*
X118494129Y-82872888D01*
X118647265Y-82984148D01*
X118647270Y-82984151D01*
X118820192Y-83061142D01*
X118820197Y-83061144D01*
X119005354Y-83100500D01*
X119005355Y-83100500D01*
X119194644Y-83100500D01*
X119194646Y-83100500D01*
X119379803Y-83061144D01*
X119552730Y-82984151D01*
X119705871Y-82872888D01*
X119734514Y-82841074D01*
X119747994Y-82828198D01*
X119764130Y-82814956D01*
X119865320Y-82704297D01*
X120014806Y-82540822D01*
X120074572Y-82504632D01*
X120106315Y-82500500D01*
X120764457Y-82500500D01*
X120787607Y-82503450D01*
X120787734Y-82502763D01*
X120792076Y-82503561D01*
X120792085Y-82503564D01*
X121177407Y-82546376D01*
X121181710Y-82547008D01*
X121184922Y-82547595D01*
X121184931Y-82547598D01*
X121196801Y-82548532D01*
X121228192Y-82552020D01*
X121230874Y-82552311D01*
X121279174Y-82550500D01*
X122528194Y-82550500D01*
X122528196Y-82550500D01*
X122546631Y-82549049D01*
X122565069Y-82547598D01*
X122565071Y-82547597D01*
X122565073Y-82547597D01*
X122606691Y-82535505D01*
X122722898Y-82501744D01*
X122864365Y-82418081D01*
X122980581Y-82301865D01*
X123064244Y-82160398D01*
X123099286Y-82039785D01*
X123110097Y-82002573D01*
X123110098Y-82002567D01*
X123113000Y-81965696D01*
X123113000Y-81534304D01*
X123110098Y-81497432D01*
X123110097Y-81497426D01*
X123064245Y-81339606D01*
X123064244Y-81339603D01*
X123064244Y-81339602D01*
X122980581Y-81198135D01*
X122980579Y-81198133D01*
X122980576Y-81198129D01*
X122864370Y-81081923D01*
X122864362Y-81081917D01*
X122722896Y-80998255D01*
X122722893Y-80998254D01*
X122565073Y-80952402D01*
X122565067Y-80952401D01*
X122528196Y-80949500D01*
X122528194Y-80949500D01*
X121362000Y-80949500D01*
X121294961Y-80929815D01*
X121249206Y-80877011D01*
X121238000Y-80825500D01*
X121238000Y-80774500D01*
X121257685Y-80707461D01*
X121310489Y-80661706D01*
X121362000Y-80650500D01*
X122520166Y-80650500D01*
X122520296Y-80650501D01*
X122532551Y-80650636D01*
X122539830Y-80649670D01*
X122543073Y-80649328D01*
X122558670Y-80648101D01*
X122565072Y-80647598D01*
X122567822Y-80647095D01*
X122582424Y-80644022D01*
X122768841Y-80619306D01*
X122895975Y-80602451D01*
X122898775Y-80602009D01*
X122918116Y-80600491D01*
X122950509Y-80600492D01*
X123084924Y-80582797D01*
X123178010Y-80570544D01*
X123178011Y-80570543D01*
X123178014Y-80570543D01*
X123354705Y-80523201D01*
X123399657Y-80511157D01*
X123399659Y-80511155D01*
X123399663Y-80511155D01*
X123611665Y-80423344D01*
X123810391Y-80308613D01*
X123992441Y-80168924D01*
X124005699Y-80155665D01*
X124005713Y-80155654D01*
X124011546Y-80149820D01*
X124011549Y-80149819D01*
X124819549Y-79341819D01*
X124880872Y-79308334D01*
X124907230Y-79305500D01*
X126973446Y-79305500D01*
X126973448Y-79305500D01*
X126991314Y-79304862D01*
X127009333Y-79303896D01*
X127149925Y-79273312D01*
X127202648Y-79253646D01*
X127215379Y-79248899D01*
X127215390Y-79248895D01*
X127215391Y-79248894D01*
X127215395Y-79248893D01*
X127341675Y-79179936D01*
X127348625Y-79174733D01*
X127414090Y-79150316D01*
X127422936Y-79150000D01*
X129037065Y-79150000D01*
X129104104Y-79169685D01*
X129111375Y-79174733D01*
X129125574Y-79185362D01*
X129140280Y-79195571D01*
X129155241Y-79205567D01*
X129286118Y-79265338D01*
X129328890Y-79277897D01*
X129353152Y-79285022D01*
X129353157Y-79285023D01*
X129353161Y-79285024D01*
X129495577Y-79305500D01*
X129495580Y-79305500D01*
X130137500Y-79305500D01*
X130204539Y-79325185D01*
X130250294Y-79377989D01*
X130261500Y-79429500D01*
X130261500Y-82039785D01*
X130261342Y-82044210D01*
X130256514Y-82111712D01*
X130244669Y-82262215D01*
X130243442Y-82270539D01*
X130222554Y-82366562D01*
X130194046Y-82485302D01*
X130191848Y-82492501D01*
X130155405Y-82590212D01*
X130110636Y-82698293D01*
X130107770Y-82704284D01*
X130057293Y-82796727D01*
X130055739Y-82799410D01*
X129996282Y-82896432D01*
X129993051Y-82901194D01*
X129929377Y-82986253D01*
X129926888Y-82989365D01*
X129853493Y-83075299D01*
X129850187Y-83078875D01*
X129774868Y-83154194D01*
X129771292Y-83157500D01*
X129685376Y-83230879D01*
X129682265Y-83233367D01*
X129597204Y-83297046D01*
X129592440Y-83300279D01*
X129495394Y-83359747D01*
X129492712Y-83361300D01*
X129400288Y-83411767D01*
X129394297Y-83414633D01*
X129286189Y-83459414D01*
X129188510Y-83495845D01*
X129181311Y-83498043D01*
X129062490Y-83526570D01*
X128966553Y-83547439D01*
X128958230Y-83548666D01*
X128807631Y-83560519D01*
X128740209Y-83565342D01*
X128735784Y-83565500D01*
X104650216Y-83565500D01*
X104645791Y-83565342D01*
X104578368Y-83560519D01*
X104427769Y-83548666D01*
X104419446Y-83547439D01*
X104323525Y-83526573D01*
X104204677Y-83498039D01*
X104197479Y-83495841D01*
X104099834Y-83459423D01*
X104099812Y-83459414D01*
X104091837Y-83456110D01*
X103991690Y-83414627D01*
X103985701Y-83411761D01*
X103893296Y-83361306D01*
X103890614Y-83359753D01*
X103883217Y-83355220D01*
X103793536Y-83300264D01*
X103788805Y-83297053D01*
X103703731Y-83233367D01*
X103700657Y-83230908D01*
X103614693Y-83157487D01*
X103611117Y-83154181D01*
X103535817Y-83078881D01*
X103532511Y-83075305D01*
X103459111Y-82989365D01*
X103459085Y-82989334D01*
X103456632Y-82986268D01*
X103392939Y-82901185D01*
X103389741Y-82896472D01*
X103330232Y-82799363D01*
X103328708Y-82796730D01*
X103293480Y-82732214D01*
X103278237Y-82704297D01*
X103275371Y-82698307D01*
X103247607Y-82631280D01*
X103230582Y-82590181D01*
X103203800Y-82518375D01*
X103194157Y-82492519D01*
X103191959Y-82485320D01*
X103164833Y-82372335D01*
X103163432Y-82366504D01*
X103143282Y-82273870D01*
X103142560Y-82270552D01*
X103141332Y-82262228D01*
X103139655Y-82240917D01*
X103129486Y-82111712D01*
X103124658Y-82044209D01*
X103124500Y-82039785D01*
X103124500Y-72900214D01*
X103124658Y-72895790D01*
X103126593Y-72868729D01*
X103129489Y-72828231D01*
X103141333Y-72677762D01*
X103142560Y-72669445D01*
X103158993Y-72593906D01*
X103163429Y-72573509D01*
X103175234Y-72524344D01*
X103191959Y-72454677D01*
X103194157Y-72447478D01*
X103230588Y-72349802D01*
X103275372Y-72241687D01*
X103278237Y-72235701D01*
X103328727Y-72143234D01*
X103330211Y-72140671D01*
X103389754Y-72043506D01*
X103392924Y-72038834D01*
X103456656Y-71953699D01*
X103459060Y-71950694D01*
X103532534Y-71864667D01*
X103535792Y-71861143D01*
X103611143Y-71785792D01*
X103614667Y-71782534D01*
X103700694Y-71709060D01*
X103703699Y-71706656D01*
X103788834Y-71642924D01*
X103793506Y-71639754D01*
X103890671Y-71580211D01*
X103893234Y-71578727D01*
X103985704Y-71528235D01*
X103991687Y-71525372D01*
X104099802Y-71480588D01*
X104197482Y-71444155D01*
X104204678Y-71441959D01*
X104323492Y-71413433D01*
X104419451Y-71392559D01*
X104427762Y-71391333D01*
X104578231Y-71379489D01*
X104645791Y-71374657D01*
X104650214Y-71374500D01*
X124770500Y-71374500D01*
X124837539Y-71394185D01*
G37*
%TD.AperFunction*%
%TA.AperFunction,Conductor*%
G36*
X113072513Y-74038167D02*
G01*
X113443505Y-74173622D01*
X113574334Y-74221391D01*
X113646893Y-74241897D01*
X113650838Y-74242854D01*
X113655716Y-74244251D01*
X113697203Y-74257999D01*
X113799991Y-74268500D01*
X114800008Y-74268499D01*
X114800012Y-74268498D01*
X114801830Y-74268406D01*
X114805892Y-74268332D01*
X114806205Y-74268336D01*
X114820852Y-74268549D01*
X114902007Y-74258079D01*
X114902797Y-74257999D01*
X114902799Y-74257998D01*
X114904224Y-74257854D01*
X114905628Y-74257612D01*
X114989626Y-74246776D01*
X115058633Y-74257722D01*
X115099242Y-74288598D01*
X115607708Y-74875953D01*
X115636703Y-74939522D01*
X115637315Y-74944508D01*
X115640000Y-74970795D01*
X115648041Y-74995061D01*
X115695186Y-75137334D01*
X115787288Y-75286656D01*
X115911344Y-75410712D01*
X116060666Y-75502814D01*
X116227203Y-75557999D01*
X116329991Y-75568500D01*
X117525400Y-75568499D01*
X117592438Y-75588184D01*
X117638193Y-75640987D01*
X117648137Y-75710146D01*
X117619112Y-75773702D01*
X117560334Y-75811476D01*
X117556915Y-75812416D01*
X117556734Y-75812475D01*
X117275904Y-75923663D01*
X117275903Y-75923664D01*
X117011205Y-76069184D01*
X117011193Y-76069191D01*
X116766846Y-76246719D01*
X116766836Y-76246727D01*
X116546652Y-76453494D01*
X116354111Y-76686236D01*
X116192268Y-76941261D01*
X116192265Y-76941267D01*
X116063661Y-77214563D01*
X116063659Y-77214568D01*
X115970320Y-77501835D01*
X115913719Y-77798546D01*
X115913718Y-77798553D01*
X115894754Y-78099994D01*
X115894754Y-78100005D01*
X115913718Y-78401446D01*
X115913719Y-78401453D01*
X115970320Y-78698164D01*
X116063659Y-78985431D01*
X116063661Y-78985436D01*
X116192265Y-79258732D01*
X116192268Y-79258738D01*
X116354111Y-79513763D01*
X116354114Y-79513767D01*
X116354115Y-79513768D01*
X116546651Y-79746504D01*
X116597545Y-79794297D01*
X116611188Y-79807108D01*
X116646582Y-79867349D01*
X116643790Y-79937163D01*
X116603696Y-79994384D01*
X116539031Y-80020845D01*
X116526304Y-80021500D01*
X116348047Y-80021500D01*
X116324892Y-80018549D01*
X116324766Y-80019236D01*
X116320417Y-80018435D01*
X115935086Y-79975620D01*
X115930804Y-79974992D01*
X115927571Y-79974402D01*
X115915719Y-79973469D01*
X115884305Y-79969979D01*
X115883552Y-79969897D01*
X115881676Y-79969693D01*
X115881663Y-79969693D01*
X115833361Y-79971500D01*
X115827463Y-79971500D01*
X115760424Y-79951815D01*
X115714669Y-79899011D01*
X115704142Y-79834539D01*
X115705460Y-79822000D01*
X115685674Y-79633744D01*
X115627179Y-79453716D01*
X115532533Y-79289784D01*
X115405871Y-79149112D01*
X115405870Y-79149111D01*
X115252734Y-79037851D01*
X115252729Y-79037848D01*
X115079807Y-78960857D01*
X115079802Y-78960855D01*
X114934001Y-78929865D01*
X114894646Y-78921500D01*
X114705354Y-78921500D01*
X114579650Y-78948218D01*
X114548224Y-78954898D01*
X114147923Y-79029953D01*
X114111379Y-79031319D01*
X114060088Y-79025620D01*
X114055807Y-79024992D01*
X114052576Y-79024402D01*
X114040719Y-79023469D01*
X114009305Y-79019979D01*
X114008552Y-79019897D01*
X114006676Y-79019693D01*
X114006663Y-79019693D01*
X113958361Y-79021500D01*
X112843095Y-79021500D01*
X112839272Y-79021382D01*
X112834517Y-79021088D01*
X112834509Y-79021088D01*
X112810648Y-79021500D01*
X112709304Y-79021500D01*
X112666115Y-79024899D01*
X112666003Y-79023485D01*
X112603772Y-79016921D01*
X112563314Y-78989946D01*
X112546819Y-78973451D01*
X112513334Y-78912128D01*
X112510500Y-78885770D01*
X112510500Y-76264118D01*
X112523592Y-76208661D01*
X112636021Y-75983830D01*
X112674365Y-75941924D01*
X112672993Y-75940189D01*
X112678650Y-75935715D01*
X112678656Y-75935712D01*
X112802712Y-75811656D01*
X112894814Y-75662334D01*
X112949999Y-75495797D01*
X112960500Y-75393009D01*
X112960499Y-74767992D01*
X112949999Y-74665203D01*
X112894814Y-74498666D01*
X112802712Y-74349344D01*
X112761660Y-74308292D01*
X112728176Y-74246970D01*
X112733160Y-74177278D01*
X112775032Y-74121345D01*
X112806810Y-74104134D01*
X112987473Y-74038171D01*
X113057195Y-74033670D01*
X113072513Y-74038167D01*
G37*
%TD.AperFunction*%
%TD*%
%TA.AperFunction,Conductor*%
%TO.N,VCC*%
G36*
X128740206Y-71374657D02*
G01*
X128807740Y-71379487D01*
X128958222Y-71391330D01*
X128966537Y-71392556D01*
X129062589Y-71413451D01*
X129181305Y-71441953D01*
X129188503Y-71444150D01*
X129286226Y-71480599D01*
X129394302Y-71525366D01*
X129400268Y-71528220D01*
X129492774Y-71578732D01*
X129495381Y-71580242D01*
X129565377Y-71623136D01*
X129592432Y-71639716D01*
X129597194Y-71642947D01*
X129682253Y-71706621D01*
X129685356Y-71709103D01*
X129759908Y-71772776D01*
X129771299Y-71782505D01*
X129774875Y-71785811D01*
X129850194Y-71861130D01*
X129853492Y-71864697D01*
X129923188Y-71946300D01*
X129926879Y-71950622D01*
X129929367Y-71953733D01*
X129968543Y-72006064D01*
X129993056Y-72038809D01*
X129996279Y-72043558D01*
X130055747Y-72140604D01*
X130057300Y-72143286D01*
X130107767Y-72235710D01*
X130110633Y-72241701D01*
X130155414Y-72349810D01*
X130191845Y-72447487D01*
X130194043Y-72454687D01*
X130222570Y-72573509D01*
X130243439Y-72669444D01*
X130244666Y-72677768D01*
X130256519Y-72828369D01*
X130261342Y-72895791D01*
X130261500Y-72900216D01*
X130261500Y-78676000D01*
X130241815Y-78743039D01*
X130189011Y-78788794D01*
X130137500Y-78800000D01*
X129495577Y-78800000D01*
X129428538Y-78780315D01*
X129421266Y-78775267D01*
X129322330Y-78701203D01*
X129322328Y-78701202D01*
X129187482Y-78650908D01*
X129187483Y-78650908D01*
X129127883Y-78644501D01*
X129127881Y-78644500D01*
X129127873Y-78644500D01*
X129127864Y-78644500D01*
X127332129Y-78644500D01*
X127332123Y-78644501D01*
X127272516Y-78650908D01*
X127137671Y-78701202D01*
X127137669Y-78701203D01*
X127038734Y-78775267D01*
X126973270Y-78799684D01*
X126964423Y-78800000D01*
X125524000Y-78800000D01*
X125456961Y-78780315D01*
X125411206Y-78727511D01*
X125400000Y-78676000D01*
X125400000Y-71498500D01*
X125419685Y-71431461D01*
X125472489Y-71385706D01*
X125524000Y-71374500D01*
X128735788Y-71374500D01*
X128740206Y-71374657D01*
G37*
%TD.AperFunction*%
%TD*%
%TA.AperFunction,Conductor*%
%TO.N,Net-(Q1-G)*%
G36*
X119706223Y-81532971D02*
G01*
X119712459Y-81539398D01*
X119713058Y-81541430D01*
X119806704Y-82012245D01*
X119804957Y-82021027D01*
X119803863Y-82022422D01*
X119391082Y-82473832D01*
X119382970Y-82477625D01*
X119374553Y-82474571D01*
X119374192Y-82474227D01*
X119100688Y-82201856D01*
X119098124Y-82198017D01*
X119021708Y-82012245D01*
X118951434Y-81841404D01*
X118951456Y-81832451D01*
X118957803Y-81826135D01*
X118957868Y-81826108D01*
X119697270Y-81532836D01*
X119706223Y-81532971D01*
G37*
%TD.AperFunction*%
%TD*%
%TA.AperFunction,Conductor*%
%TO.N,Net-(Q1-G)*%
G36*
X121290621Y-81451591D02*
G01*
X121855551Y-81739576D01*
X121861365Y-81746387D01*
X121860661Y-81755314D01*
X121855551Y-81760424D01*
X121290621Y-82048408D01*
X121284015Y-82049612D01*
X120847908Y-82001156D01*
X120840064Y-81996837D01*
X120837500Y-81989528D01*
X120837500Y-81510471D01*
X120840927Y-81502198D01*
X120847906Y-81498843D01*
X121284015Y-81450387D01*
X121290621Y-81451591D01*
G37*
%TD.AperFunction*%
%TD*%
%TA.AperFunction,Conductor*%
%TO.N,Net-(Q1-G)*%
G36*
X114794942Y-79426435D02*
G01*
X114799835Y-79433935D01*
X114800035Y-79436062D01*
X114801000Y-79822000D01*
X114800035Y-80207937D01*
X114796587Y-80216202D01*
X114788306Y-80219608D01*
X114786179Y-80219408D01*
X114009544Y-80073789D01*
X114002044Y-80068896D01*
X114000000Y-80062289D01*
X114000000Y-79581710D01*
X114003427Y-79573437D01*
X114009542Y-79570210D01*
X114786180Y-79424591D01*
X114794942Y-79426435D01*
G37*
%TD.AperFunction*%
%TD*%
%TA.AperFunction,Conductor*%
%TO.N,Net-(Q1-G)*%
G36*
X114389593Y-79570843D02*
G01*
X114397436Y-79575162D01*
X114400000Y-79582471D01*
X114400000Y-80061528D01*
X114396573Y-80069801D01*
X114389592Y-80073156D01*
X113953484Y-80121612D01*
X113946878Y-80120408D01*
X113381948Y-79832424D01*
X113376134Y-79825613D01*
X113376838Y-79816686D01*
X113381948Y-79811576D01*
X113946879Y-79523590D01*
X113953483Y-79522387D01*
X114389593Y-79570843D01*
G37*
%TD.AperFunction*%
%TD*%
%TA.AperFunction,Conductor*%
%TO.N,VCC*%
G36*
X122482656Y-73291210D02*
G01*
X123524308Y-73914594D01*
X123529647Y-73921781D01*
X123530000Y-73924632D01*
X123530000Y-74411367D01*
X123526573Y-74419640D01*
X123524308Y-74421406D01*
X122482658Y-75044788D01*
X122473799Y-75046096D01*
X122469323Y-75043870D01*
X121390354Y-74177121D01*
X121386050Y-74169269D01*
X121388560Y-74160673D01*
X121390354Y-74158879D01*
X121694452Y-73914593D01*
X122469323Y-73292128D01*
X122477919Y-73289619D01*
X122482656Y-73291210D01*
G37*
%TD.AperFunction*%
%TD*%
%TA.AperFunction,Conductor*%
%TO.N,VCC*%
G36*
X122821742Y-79598684D02*
G01*
X122829479Y-79603190D01*
X122831868Y-79610086D01*
X122839697Y-80089546D01*
X122836406Y-80097874D01*
X122829537Y-80101335D01*
X122466109Y-80149521D01*
X122459258Y-80148347D01*
X121894450Y-79860440D01*
X121888635Y-79853630D01*
X121889339Y-79844703D01*
X121894448Y-79839592D01*
X122459273Y-79551666D01*
X122466155Y-79550497D01*
X122821742Y-79598684D01*
G37*
%TD.AperFunction*%
%TD*%
%TA.AperFunction,Conductor*%
%TO.N,Net-(Q1-D)*%
G36*
X119415273Y-80501414D02*
G01*
X119978815Y-80788691D01*
X119984629Y-80795502D01*
X119983925Y-80804429D01*
X119978133Y-80809859D01*
X119349022Y-81081105D01*
X119342568Y-81081918D01*
X118972378Y-81023557D01*
X118964739Y-81018884D01*
X118962500Y-81012000D01*
X118962500Y-80533141D01*
X118965927Y-80524868D01*
X118973626Y-80521456D01*
X119409388Y-80500152D01*
X119415273Y-80501414D01*
G37*
%TD.AperFunction*%
%TD*%
%TA.AperFunction,Conductor*%
%TO.N,Net-(Q1-D)*%
G36*
X116264593Y-80520843D02*
G01*
X116272436Y-80525162D01*
X116275000Y-80532471D01*
X116275000Y-81011528D01*
X116271573Y-81019801D01*
X116264592Y-81023156D01*
X115828484Y-81071612D01*
X115821878Y-81070408D01*
X115256948Y-80782424D01*
X115251134Y-80775613D01*
X115251838Y-80766686D01*
X115256948Y-80761576D01*
X115821879Y-80473590D01*
X115828483Y-80472387D01*
X116264593Y-80520843D01*
G37*
%TD.AperFunction*%
%TD*%
%TA.AperFunction,Conductor*%
%TO.N,VBUS*%
G36*
X107963105Y-72811619D02*
G01*
X109522102Y-73004231D01*
X109529891Y-73008647D01*
X109532366Y-73015843D01*
X109532366Y-73499741D01*
X109528939Y-73508014D01*
X109527804Y-73509012D01*
X108559177Y-74254776D01*
X108550531Y-74257107D01*
X108543773Y-74253785D01*
X108489300Y-74199402D01*
X107952438Y-73663432D01*
X107949005Y-73655165D01*
X107949984Y-72823216D01*
X107953421Y-72814949D01*
X107961698Y-72811532D01*
X107963105Y-72811619D01*
G37*
%TD.AperFunction*%
%TD*%
%TA.AperFunction,Conductor*%
%TO.N,VBUS*%
G36*
X111216654Y-72764828D02*
G01*
X111219560Y-72766752D01*
X111751378Y-73246815D01*
X111755223Y-73254902D01*
X111752223Y-73263340D01*
X111751378Y-73264185D01*
X111219560Y-73744247D01*
X111211122Y-73747247D01*
X111207707Y-73746552D01*
X110555187Y-73508306D01*
X110548591Y-73502250D01*
X110547500Y-73497316D01*
X110547500Y-73013683D01*
X110550927Y-73005410D01*
X110555185Y-73002693D01*
X111207708Y-72764447D01*
X111216654Y-72764828D01*
G37*
%TD.AperFunction*%
%TD*%
%TA.AperFunction,Conductor*%
%TO.N,VBUS*%
G36*
X113756654Y-72764828D02*
G01*
X113759560Y-72766752D01*
X114291378Y-73246815D01*
X114295223Y-73254902D01*
X114292223Y-73263340D01*
X114291378Y-73264185D01*
X113759560Y-73744247D01*
X113751122Y-73747247D01*
X113747707Y-73746552D01*
X113095187Y-73508306D01*
X113088591Y-73502250D01*
X113087500Y-73497316D01*
X113087500Y-73013683D01*
X113090927Y-73005410D01*
X113095185Y-73002693D01*
X113747708Y-72764447D01*
X113756654Y-72764828D01*
G37*
%TD.AperFunction*%
%TD*%
%TA.AperFunction,Conductor*%
%TO.N,VBUS*%
G36*
X112312289Y-72764446D02*
G01*
X112964813Y-73002693D01*
X112971409Y-73008749D01*
X112972500Y-73013683D01*
X112972500Y-73497316D01*
X112969073Y-73505589D01*
X112964813Y-73508306D01*
X112312292Y-73746552D01*
X112303345Y-73746171D01*
X112300439Y-73744247D01*
X111768621Y-73264185D01*
X111764776Y-73256098D01*
X111767776Y-73247660D01*
X111768621Y-73246815D01*
X112035952Y-73005500D01*
X112300440Y-72766751D01*
X112308877Y-72763752D01*
X112312289Y-72764446D01*
G37*
%TD.AperFunction*%
%TD*%
%TA.AperFunction,Conductor*%
%TO.N,VBUS*%
G36*
X114981407Y-72893374D02*
G01*
X115451000Y-73232335D01*
X115601219Y-73340766D01*
X115605921Y-73348387D01*
X115603858Y-73357101D01*
X115602644Y-73358526D01*
X115261629Y-73699541D01*
X115254853Y-73702872D01*
X114756177Y-73767203D01*
X114747533Y-73764863D01*
X114745889Y-73763319D01*
X114308978Y-73265820D01*
X114306094Y-73257343D01*
X114310049Y-73249309D01*
X114312193Y-73247815D01*
X114968999Y-72892571D01*
X114977904Y-72891650D01*
X114981407Y-72893374D01*
G37*
%TD.AperFunction*%
%TD*%
%TA.AperFunction,Conductor*%
%TO.N,VBUS*%
G36*
X116383341Y-73271044D02*
G01*
X116383950Y-73271555D01*
X117258855Y-74059031D01*
X117367128Y-74156485D01*
X117370985Y-74164567D01*
X117367997Y-74173008D01*
X117363926Y-74175928D01*
X116137866Y-74703558D01*
X116128912Y-74703681D01*
X116124395Y-74700469D01*
X115277391Y-73722050D01*
X115274567Y-73713552D01*
X115277963Y-73706120D01*
X115620967Y-73363116D01*
X115627820Y-73359776D01*
X116374716Y-73268644D01*
X116383341Y-73271044D01*
G37*
%TD.AperFunction*%
%TD*%
%TA.AperFunction,Conductor*%
%TO.N,+BATT*%
G36*
X105662210Y-79583427D02*
G01*
X105663496Y-79584953D01*
X106254320Y-80421953D01*
X106256291Y-80430688D01*
X106253039Y-80436968D01*
X105418278Y-81272712D01*
X105410007Y-81276144D01*
X105401732Y-81272722D01*
X105401722Y-81272712D01*
X104566960Y-80436968D01*
X104563538Y-80428693D01*
X104565677Y-80421956D01*
X105156504Y-79584953D01*
X105164075Y-79580170D01*
X105166063Y-79580000D01*
X105653937Y-79580000D01*
X105662210Y-79583427D01*
G37*
%TD.AperFunction*%
%TD*%
%TA.AperFunction,Conductor*%
%TO.N,+BATT*%
G36*
X105287550Y-77478595D02*
G01*
X105289768Y-77480633D01*
X105881953Y-78185887D01*
X105884649Y-78194427D01*
X105884230Y-78196669D01*
X105662448Y-78961558D01*
X105656853Y-78968550D01*
X105651211Y-78970000D01*
X105166517Y-78970000D01*
X105158244Y-78966573D01*
X105156569Y-78964459D01*
X104725361Y-78267976D01*
X104723920Y-78259138D01*
X104725745Y-78255078D01*
X105271246Y-77481414D01*
X105278814Y-77476628D01*
X105287550Y-77478595D01*
G37*
%TD.AperFunction*%
%TD*%
%TA.AperFunction,Conductor*%
%TO.N,Net-(Q1-G)*%
G36*
X111768178Y-75087495D02*
G01*
X112266397Y-75574601D01*
X112269917Y-75582835D01*
X112268683Y-75588200D01*
X112013234Y-76099033D01*
X112006468Y-76104900D01*
X112002769Y-76105500D01*
X111517231Y-76105500D01*
X111508958Y-76102073D01*
X111506766Y-76099033D01*
X111251316Y-75588200D01*
X111250681Y-75579268D01*
X111253600Y-75574603D01*
X111751821Y-75087495D01*
X111760132Y-75084163D01*
X111768178Y-75087495D01*
G37*
%TD.AperFunction*%
%TD*%
%TA.AperFunction,Conductor*%
%TO.N,Net-(Q1-G)*%
G36*
X112778406Y-79523739D02*
G01*
X113340901Y-79811025D01*
X113346710Y-79817840D01*
X113345999Y-79826767D01*
X113340097Y-79832238D01*
X112704544Y-80098267D01*
X112697723Y-80098945D01*
X112239395Y-80006914D01*
X112231958Y-80001926D01*
X112230227Y-79993140D01*
X112231563Y-79989597D01*
X112470634Y-79575503D01*
X112477737Y-79570054D01*
X112478881Y-79569808D01*
X112771220Y-79522610D01*
X112778406Y-79523739D01*
G37*
%TD.AperFunction*%
%TD*%
%TA.AperFunction,Conductor*%
%TO.N,LINE*%
G36*
X112778121Y-81423591D02*
G01*
X113343051Y-81711576D01*
X113348865Y-81718387D01*
X113348161Y-81727314D01*
X113343051Y-81732424D01*
X112778121Y-82020408D01*
X112771515Y-82021612D01*
X112335408Y-81973156D01*
X112327564Y-81968837D01*
X112325000Y-81961528D01*
X112325000Y-81482471D01*
X112328427Y-81474198D01*
X112335406Y-81470843D01*
X112771515Y-81422387D01*
X112778121Y-81423591D01*
G37*
%TD.AperFunction*%
%TD*%
%TA.AperFunction,Conductor*%
%TO.N,LINE*%
G36*
X108559238Y-80685757D02*
G01*
X109503078Y-81468491D01*
X109507258Y-81476410D01*
X109507309Y-81477497D01*
X109507309Y-81961427D01*
X109503882Y-81969700D01*
X109496790Y-81973067D01*
X107962865Y-82128694D01*
X107954288Y-82126120D01*
X107950044Y-82118235D01*
X107949984Y-82117083D01*
X107949005Y-81284857D01*
X107952420Y-81276584D01*
X108543505Y-80686481D01*
X108551779Y-80683063D01*
X108559238Y-80685757D01*
G37*
%TD.AperFunction*%
%TD*%
%TA.AperFunction,Conductor*%
%TO.N,LINE*%
G36*
X108329572Y-79609285D02*
G01*
X108332504Y-79614191D01*
X108732257Y-80944600D01*
X108731356Y-80953509D01*
X108725541Y-80958772D01*
X107954489Y-81279134D01*
X107945534Y-81279143D01*
X107945511Y-81279134D01*
X107176226Y-80959507D01*
X107169901Y-80953168D01*
X107169910Y-80944213D01*
X107170222Y-80943527D01*
X107826782Y-79612383D01*
X107833515Y-79606479D01*
X107837275Y-79605858D01*
X108321299Y-79605858D01*
X108329572Y-79609285D01*
G37*
%TD.AperFunction*%
%TD*%
%TA.AperFunction,Conductor*%
%TO.N,LINE*%
G36*
X108087524Y-77478234D02*
G01*
X108088955Y-77479665D01*
X108399728Y-77849775D01*
X108681216Y-78185010D01*
X108683912Y-78193550D01*
X108682898Y-78197395D01*
X108333124Y-78963161D01*
X108326570Y-78969263D01*
X108322482Y-78970000D01*
X107837518Y-78970000D01*
X107829245Y-78966573D01*
X107826876Y-78963161D01*
X107477101Y-78197395D01*
X107476780Y-78188446D01*
X107478783Y-78185010D01*
X108071041Y-77479669D01*
X108078984Y-77475538D01*
X108087524Y-77478234D01*
G37*
%TD.AperFunction*%
%TD*%
%TA.AperFunction,Conductor*%
%TO.N,VCC*%
G36*
X126511963Y-74147101D02*
G01*
X125415292Y-75028071D01*
X125400000Y-75018961D01*
X124365708Y-74402826D01*
X124360354Y-74395648D01*
X124360130Y-74394537D01*
X124325434Y-74166885D01*
X124301130Y-74007414D01*
X124303271Y-73998719D01*
X124306262Y-73995878D01*
X125400000Y-73276193D01*
X125415292Y-73266131D01*
X126511963Y-74147101D01*
G37*
%TD.AperFunction*%
%TD*%
%TA.AperFunction,Conductor*%
%TO.N,VCC*%
G36*
X126996671Y-77519030D02*
G01*
X125900000Y-78800000D01*
X125400000Y-78800000D01*
X124614985Y-78800000D01*
X124606712Y-78796573D01*
X124603285Y-78788300D01*
X124603634Y-78785462D01*
X124800000Y-78000000D01*
X125399999Y-75942860D01*
X125400000Y-75942857D01*
X125500000Y-75600000D01*
X126996671Y-77519030D01*
G37*
%TD.AperFunction*%
%TD*%
M02*
