%TF.GenerationSoftware,KiCad,Pcbnew,7.0.8*%
%TF.CreationDate,2024-12-11T19:53:02+01:00*%
%TF.ProjectId,TP4056-module-adapter,54503430-3536-42d6-9d6f-64756c652d61,rev?*%
%TF.SameCoordinates,Original*%
%TF.FileFunction,Legend,Top*%
%TF.FilePolarity,Positive*%
%FSLAX46Y46*%
G04 Gerber Fmt 4.6, Leading zero omitted, Abs format (unit mm)*
G04 Created by KiCad (PCBNEW 7.0.8) date 2024-12-11 19:53:02*
%MOMM*%
%LPD*%
G01*
G04 APERTURE LIST*
%ADD10C,0.150000*%
%ADD11C,0.120000*%
G04 APERTURE END LIST*
D10*
X121904761Y-78850057D02*
X121809523Y-78802438D01*
X121809523Y-78802438D02*
X121714285Y-78707200D01*
X121714285Y-78707200D02*
X121571428Y-78564342D01*
X121571428Y-78564342D02*
X121476190Y-78516723D01*
X121476190Y-78516723D02*
X121380952Y-78516723D01*
X121428571Y-78754819D02*
X121333333Y-78707200D01*
X121333333Y-78707200D02*
X121238095Y-78611961D01*
X121238095Y-78611961D02*
X121190476Y-78421485D01*
X121190476Y-78421485D02*
X121190476Y-78088152D01*
X121190476Y-78088152D02*
X121238095Y-77897676D01*
X121238095Y-77897676D02*
X121333333Y-77802438D01*
X121333333Y-77802438D02*
X121428571Y-77754819D01*
X121428571Y-77754819D02*
X121619047Y-77754819D01*
X121619047Y-77754819D02*
X121714285Y-77802438D01*
X121714285Y-77802438D02*
X121809523Y-77897676D01*
X121809523Y-77897676D02*
X121857142Y-78088152D01*
X121857142Y-78088152D02*
X121857142Y-78421485D01*
X121857142Y-78421485D02*
X121809523Y-78611961D01*
X121809523Y-78611961D02*
X121714285Y-78707200D01*
X121714285Y-78707200D02*
X121619047Y-78754819D01*
X121619047Y-78754819D02*
X121428571Y-78754819D01*
X122238095Y-77850057D02*
X122285714Y-77802438D01*
X122285714Y-77802438D02*
X122380952Y-77754819D01*
X122380952Y-77754819D02*
X122619047Y-77754819D01*
X122619047Y-77754819D02*
X122714285Y-77802438D01*
X122714285Y-77802438D02*
X122761904Y-77850057D01*
X122761904Y-77850057D02*
X122809523Y-77945295D01*
X122809523Y-77945295D02*
X122809523Y-78040533D01*
X122809523Y-78040533D02*
X122761904Y-78183390D01*
X122761904Y-78183390D02*
X122190476Y-78754819D01*
X122190476Y-78754819D02*
X122809523Y-78754819D01*
X114133333Y-77162819D02*
X113800000Y-76686628D01*
X113561905Y-77162819D02*
X113561905Y-76162819D01*
X113561905Y-76162819D02*
X113942857Y-76162819D01*
X113942857Y-76162819D02*
X114038095Y-76210438D01*
X114038095Y-76210438D02*
X114085714Y-76258057D01*
X114085714Y-76258057D02*
X114133333Y-76353295D01*
X114133333Y-76353295D02*
X114133333Y-76496152D01*
X114133333Y-76496152D02*
X114085714Y-76591390D01*
X114085714Y-76591390D02*
X114038095Y-76639009D01*
X114038095Y-76639009D02*
X113942857Y-76686628D01*
X113942857Y-76686628D02*
X113561905Y-76686628D01*
X114514286Y-76258057D02*
X114561905Y-76210438D01*
X114561905Y-76210438D02*
X114657143Y-76162819D01*
X114657143Y-76162819D02*
X114895238Y-76162819D01*
X114895238Y-76162819D02*
X114990476Y-76210438D01*
X114990476Y-76210438D02*
X115038095Y-76258057D01*
X115038095Y-76258057D02*
X115085714Y-76353295D01*
X115085714Y-76353295D02*
X115085714Y-76448533D01*
X115085714Y-76448533D02*
X115038095Y-76591390D01*
X115038095Y-76591390D02*
X114466667Y-77162819D01*
X114466667Y-77162819D02*
X115085714Y-77162819D01*
X121261905Y-77054819D02*
X121261905Y-76054819D01*
X121261905Y-76054819D02*
X121500000Y-76054819D01*
X121500000Y-76054819D02*
X121642857Y-76102438D01*
X121642857Y-76102438D02*
X121738095Y-76197676D01*
X121738095Y-76197676D02*
X121785714Y-76292914D01*
X121785714Y-76292914D02*
X121833333Y-76483390D01*
X121833333Y-76483390D02*
X121833333Y-76626247D01*
X121833333Y-76626247D02*
X121785714Y-76816723D01*
X121785714Y-76816723D02*
X121738095Y-76911961D01*
X121738095Y-76911961D02*
X121642857Y-77007200D01*
X121642857Y-77007200D02*
X121500000Y-77054819D01*
X121500000Y-77054819D02*
X121261905Y-77054819D01*
X122785714Y-77054819D02*
X122214286Y-77054819D01*
X122500000Y-77054819D02*
X122500000Y-76054819D01*
X122500000Y-76054819D02*
X122404762Y-76197676D01*
X122404762Y-76197676D02*
X122309524Y-76292914D01*
X122309524Y-76292914D02*
X122214286Y-76340533D01*
X114204761Y-78782057D02*
X114109523Y-78734438D01*
X114109523Y-78734438D02*
X114014285Y-78639200D01*
X114014285Y-78639200D02*
X113871428Y-78496342D01*
X113871428Y-78496342D02*
X113776190Y-78448723D01*
X113776190Y-78448723D02*
X113680952Y-78448723D01*
X113728571Y-78686819D02*
X113633333Y-78639200D01*
X113633333Y-78639200D02*
X113538095Y-78543961D01*
X113538095Y-78543961D02*
X113490476Y-78353485D01*
X113490476Y-78353485D02*
X113490476Y-78020152D01*
X113490476Y-78020152D02*
X113538095Y-77829676D01*
X113538095Y-77829676D02*
X113633333Y-77734438D01*
X113633333Y-77734438D02*
X113728571Y-77686819D01*
X113728571Y-77686819D02*
X113919047Y-77686819D01*
X113919047Y-77686819D02*
X114014285Y-77734438D01*
X114014285Y-77734438D02*
X114109523Y-77829676D01*
X114109523Y-77829676D02*
X114157142Y-78020152D01*
X114157142Y-78020152D02*
X114157142Y-78353485D01*
X114157142Y-78353485D02*
X114109523Y-78543961D01*
X114109523Y-78543961D02*
X114014285Y-78639200D01*
X114014285Y-78639200D02*
X113919047Y-78686819D01*
X113919047Y-78686819D02*
X113728571Y-78686819D01*
X115109523Y-78686819D02*
X114538095Y-78686819D01*
X114823809Y-78686819D02*
X114823809Y-77686819D01*
X114823809Y-77686819D02*
X114728571Y-77829676D01*
X114728571Y-77829676D02*
X114633333Y-77924914D01*
X114633333Y-77924914D02*
X114538095Y-77972533D01*
X111593333Y-77162819D02*
X111260000Y-76686628D01*
X111021905Y-77162819D02*
X111021905Y-76162819D01*
X111021905Y-76162819D02*
X111402857Y-76162819D01*
X111402857Y-76162819D02*
X111498095Y-76210438D01*
X111498095Y-76210438D02*
X111545714Y-76258057D01*
X111545714Y-76258057D02*
X111593333Y-76353295D01*
X111593333Y-76353295D02*
X111593333Y-76496152D01*
X111593333Y-76496152D02*
X111545714Y-76591390D01*
X111545714Y-76591390D02*
X111498095Y-76639009D01*
X111498095Y-76639009D02*
X111402857Y-76686628D01*
X111402857Y-76686628D02*
X111021905Y-76686628D01*
X112545714Y-77162819D02*
X111974286Y-77162819D01*
X112260000Y-77162819D02*
X112260000Y-76162819D01*
X112260000Y-76162819D02*
X112164762Y-76305676D01*
X112164762Y-76305676D02*
X112069524Y-76400914D01*
X112069524Y-76400914D02*
X111974286Y-76448533D01*
X109446666Y-77401009D02*
X109113333Y-77401009D01*
X109113333Y-77924819D02*
X109113333Y-76924819D01*
X109113333Y-76924819D02*
X109589523Y-76924819D01*
X110494285Y-77924819D02*
X109922857Y-77924819D01*
X110208571Y-77924819D02*
X110208571Y-76924819D01*
X110208571Y-76924819D02*
X110113333Y-77067676D01*
X110113333Y-77067676D02*
X110018095Y-77162914D01*
X110018095Y-77162914D02*
X109922857Y-77210533D01*
D11*
%TO.C,J3*%
X129560000Y-81325000D02*
X128230000Y-81325000D01*
X129560000Y-79995000D02*
X129560000Y-81325000D01*
X129560000Y-78725000D02*
X129560000Y-73585000D01*
X129560000Y-78725000D02*
X126900000Y-78725000D01*
X129560000Y-73585000D02*
X126900000Y-73585000D01*
X126900000Y-78725000D02*
X126900000Y-73585000D01*
%TO.C,Q2*%
X120937500Y-82360000D02*
X122612500Y-82360000D01*
X120937500Y-82360000D02*
X120287500Y-82360000D01*
X120937500Y-79240000D02*
X121587500Y-79240000D01*
X120937500Y-79240000D02*
X120287500Y-79240000D01*
%TO.C,R2*%
X115035000Y-73940936D02*
X115035000Y-74395064D01*
X113565000Y-73940936D02*
X113565000Y-74395064D01*
%TO.C,D1*%
X122890000Y-75818000D02*
X122890000Y-72518000D01*
X122890000Y-75818000D02*
X117380000Y-75818000D01*
X122890000Y-72518000D02*
X117380000Y-72518000D01*
%TO.C,J1*%
X104080000Y-74990000D02*
X104080000Y-73660000D01*
X105410000Y-74990000D02*
X104080000Y-74990000D01*
X106680000Y-74990000D02*
X109280000Y-74990000D01*
X106680000Y-74990000D02*
X106680000Y-72330000D01*
X109280000Y-74990000D02*
X109280000Y-72330000D01*
X106680000Y-72330000D02*
X109280000Y-72330000D01*
%TO.C,Q1*%
X114300000Y-79212000D02*
X112625000Y-79212000D01*
X114300000Y-79212000D02*
X114950000Y-79212000D01*
X114300000Y-82332000D02*
X113650000Y-82332000D01*
X114300000Y-82332000D02*
X114950000Y-82332000D01*
%TO.C,R1*%
X111025000Y-74395064D02*
X111025000Y-73940936D01*
X112495000Y-74395064D02*
X112495000Y-73940936D01*
%TO.C,J2*%
X104080000Y-82610000D02*
X104080000Y-81280000D01*
X105410000Y-82610000D02*
X104080000Y-82610000D01*
X106680000Y-82610000D02*
X109280000Y-82610000D01*
X106680000Y-82610000D02*
X106680000Y-79950000D01*
X109280000Y-82610000D02*
X109280000Y-79950000D01*
X106680000Y-79950000D02*
X109280000Y-79950000D01*
%TO.C,F1*%
X106077936Y-76560000D02*
X107282064Y-76560000D01*
X106077936Y-78380000D02*
X107282064Y-78380000D01*
%TD*%
M02*
