%TF.GenerationSoftware,KiCad,Pcbnew,7.0.8*%
%TF.CreationDate,2024-12-11T19:53:02+01:00*%
%TF.ProjectId,TP4056-module-adapter,54503430-3536-42d6-9d6f-64756c652d61,rev?*%
%TF.SameCoordinates,Original*%
%TF.FileFunction,Legend,Bot*%
%TF.FilePolarity,Positive*%
%FSLAX46Y46*%
G04 Gerber Fmt 4.6, Leading zero omitted, Abs format (unit mm)*
G04 Created by KiCad (PCBNEW 7.0.8) date 2024-12-11 19:53:02*
%MOMM*%
%LPD*%
G01*
G04 APERTURE LIST*
%ADD10C,0.100000*%
%ADD11C,0.300000*%
G04 APERTURE END LIST*
D10*
X128991353Y-72921371D02*
X128991353Y-72321371D01*
X128991353Y-72321371D02*
X128762782Y-72321371D01*
X128762782Y-72321371D02*
X128705639Y-72349942D01*
X128705639Y-72349942D02*
X128677068Y-72378514D01*
X128677068Y-72378514D02*
X128648496Y-72435657D01*
X128648496Y-72435657D02*
X128648496Y-72521371D01*
X128648496Y-72521371D02*
X128677068Y-72578514D01*
X128677068Y-72578514D02*
X128705639Y-72607085D01*
X128705639Y-72607085D02*
X128762782Y-72635657D01*
X128762782Y-72635657D02*
X128991353Y-72635657D01*
X128305639Y-72921371D02*
X128362782Y-72892800D01*
X128362782Y-72892800D02*
X128391353Y-72864228D01*
X128391353Y-72864228D02*
X128419925Y-72807085D01*
X128419925Y-72807085D02*
X128419925Y-72635657D01*
X128419925Y-72635657D02*
X128391353Y-72578514D01*
X128391353Y-72578514D02*
X128362782Y-72549942D01*
X128362782Y-72549942D02*
X128305639Y-72521371D01*
X128305639Y-72521371D02*
X128219925Y-72521371D01*
X128219925Y-72521371D02*
X128162782Y-72549942D01*
X128162782Y-72549942D02*
X128134211Y-72578514D01*
X128134211Y-72578514D02*
X128105639Y-72635657D01*
X128105639Y-72635657D02*
X128105639Y-72807085D01*
X128105639Y-72807085D02*
X128134211Y-72864228D01*
X128134211Y-72864228D02*
X128162782Y-72892800D01*
X128162782Y-72892800D02*
X128219925Y-72921371D01*
X128219925Y-72921371D02*
X128305639Y-72921371D01*
X127934211Y-72521371D02*
X127705639Y-72521371D01*
X127848496Y-72321371D02*
X127848496Y-72835657D01*
X127848496Y-72835657D02*
X127819925Y-72892800D01*
X127819925Y-72892800D02*
X127762782Y-72921371D01*
X127762782Y-72921371D02*
X127705639Y-72921371D01*
X127505639Y-72521371D02*
X127505639Y-73121371D01*
X127505639Y-72549942D02*
X127448497Y-72521371D01*
X127448497Y-72521371D02*
X127334211Y-72521371D01*
X127334211Y-72521371D02*
X127277068Y-72549942D01*
X127277068Y-72549942D02*
X127248497Y-72578514D01*
X127248497Y-72578514D02*
X127219925Y-72635657D01*
X127219925Y-72635657D02*
X127219925Y-72807085D01*
X127219925Y-72807085D02*
X127248497Y-72864228D01*
X127248497Y-72864228D02*
X127277068Y-72892800D01*
X127277068Y-72892800D02*
X127334211Y-72921371D01*
X127334211Y-72921371D02*
X127448497Y-72921371D01*
X127448497Y-72921371D02*
X127505639Y-72892800D01*
X126705640Y-72521371D02*
X126705640Y-72921371D01*
X126962782Y-72521371D02*
X126962782Y-72835657D01*
X126962782Y-72835657D02*
X126934211Y-72892800D01*
X126934211Y-72892800D02*
X126877068Y-72921371D01*
X126877068Y-72921371D02*
X126791354Y-72921371D01*
X126791354Y-72921371D02*
X126734211Y-72892800D01*
X126734211Y-72892800D02*
X126705640Y-72864228D01*
X126419925Y-72921371D02*
X126419925Y-72521371D01*
X126419925Y-72635657D02*
X126391354Y-72578514D01*
X126391354Y-72578514D02*
X126362783Y-72549942D01*
X126362783Y-72549942D02*
X126305640Y-72521371D01*
X126305640Y-72521371D02*
X126248497Y-72521371D01*
X126048496Y-72921371D02*
X126048496Y-72521371D01*
X126048496Y-72635657D02*
X126019925Y-72578514D01*
X126019925Y-72578514D02*
X125991354Y-72549942D01*
X125991354Y-72549942D02*
X125934211Y-72521371D01*
X125934211Y-72521371D02*
X125877068Y-72521371D01*
X125677067Y-72921371D02*
X125677067Y-72521371D01*
X125677067Y-72321371D02*
X125705639Y-72349942D01*
X125705639Y-72349942D02*
X125677067Y-72378514D01*
X125677067Y-72378514D02*
X125648496Y-72349942D01*
X125648496Y-72349942D02*
X125677067Y-72321371D01*
X125677067Y-72321371D02*
X125677067Y-72378514D01*
X125019925Y-72321371D02*
X124677068Y-72321371D01*
X124848496Y-72921371D02*
X124848496Y-72321371D01*
X124477067Y-72921371D02*
X124477067Y-72321371D01*
X124477067Y-72321371D02*
X124248496Y-72321371D01*
X124248496Y-72321371D02*
X124191353Y-72349942D01*
X124191353Y-72349942D02*
X124162782Y-72378514D01*
X124162782Y-72378514D02*
X124134210Y-72435657D01*
X124134210Y-72435657D02*
X124134210Y-72521371D01*
X124134210Y-72521371D02*
X124162782Y-72578514D01*
X124162782Y-72578514D02*
X124191353Y-72607085D01*
X124191353Y-72607085D02*
X124248496Y-72635657D01*
X124248496Y-72635657D02*
X124477067Y-72635657D01*
X123619925Y-72521371D02*
X123619925Y-72921371D01*
X123762782Y-72292800D02*
X123905639Y-72721371D01*
X123905639Y-72721371D02*
X123534210Y-72721371D01*
X123191353Y-72321371D02*
X123134210Y-72321371D01*
X123134210Y-72321371D02*
X123077067Y-72349942D01*
X123077067Y-72349942D02*
X123048496Y-72378514D01*
X123048496Y-72378514D02*
X123019924Y-72435657D01*
X123019924Y-72435657D02*
X122991353Y-72549942D01*
X122991353Y-72549942D02*
X122991353Y-72692800D01*
X122991353Y-72692800D02*
X123019924Y-72807085D01*
X123019924Y-72807085D02*
X123048496Y-72864228D01*
X123048496Y-72864228D02*
X123077067Y-72892800D01*
X123077067Y-72892800D02*
X123134210Y-72921371D01*
X123134210Y-72921371D02*
X123191353Y-72921371D01*
X123191353Y-72921371D02*
X123248496Y-72892800D01*
X123248496Y-72892800D02*
X123277067Y-72864228D01*
X123277067Y-72864228D02*
X123305638Y-72807085D01*
X123305638Y-72807085D02*
X123334210Y-72692800D01*
X123334210Y-72692800D02*
X123334210Y-72549942D01*
X123334210Y-72549942D02*
X123305638Y-72435657D01*
X123305638Y-72435657D02*
X123277067Y-72378514D01*
X123277067Y-72378514D02*
X123248496Y-72349942D01*
X123248496Y-72349942D02*
X123191353Y-72321371D01*
X122448495Y-72321371D02*
X122734209Y-72321371D01*
X122734209Y-72321371D02*
X122762781Y-72607085D01*
X122762781Y-72607085D02*
X122734209Y-72578514D01*
X122734209Y-72578514D02*
X122677067Y-72549942D01*
X122677067Y-72549942D02*
X122534209Y-72549942D01*
X122534209Y-72549942D02*
X122477067Y-72578514D01*
X122477067Y-72578514D02*
X122448495Y-72607085D01*
X122448495Y-72607085D02*
X122419924Y-72664228D01*
X122419924Y-72664228D02*
X122419924Y-72807085D01*
X122419924Y-72807085D02*
X122448495Y-72864228D01*
X122448495Y-72864228D02*
X122477067Y-72892800D01*
X122477067Y-72892800D02*
X122534209Y-72921371D01*
X122534209Y-72921371D02*
X122677067Y-72921371D01*
X122677067Y-72921371D02*
X122734209Y-72892800D01*
X122734209Y-72892800D02*
X122762781Y-72864228D01*
X121905638Y-72321371D02*
X122019923Y-72321371D01*
X122019923Y-72321371D02*
X122077066Y-72349942D01*
X122077066Y-72349942D02*
X122105638Y-72378514D01*
X122105638Y-72378514D02*
X122162780Y-72464228D01*
X122162780Y-72464228D02*
X122191352Y-72578514D01*
X122191352Y-72578514D02*
X122191352Y-72807085D01*
X122191352Y-72807085D02*
X122162780Y-72864228D01*
X122162780Y-72864228D02*
X122134209Y-72892800D01*
X122134209Y-72892800D02*
X122077066Y-72921371D01*
X122077066Y-72921371D02*
X121962780Y-72921371D01*
X121962780Y-72921371D02*
X121905638Y-72892800D01*
X121905638Y-72892800D02*
X121877066Y-72864228D01*
X121877066Y-72864228D02*
X121848495Y-72807085D01*
X121848495Y-72807085D02*
X121848495Y-72664228D01*
X121848495Y-72664228D02*
X121877066Y-72607085D01*
X121877066Y-72607085D02*
X121905638Y-72578514D01*
X121905638Y-72578514D02*
X121962780Y-72549942D01*
X121962780Y-72549942D02*
X122077066Y-72549942D01*
X122077066Y-72549942D02*
X122134209Y-72578514D01*
X122134209Y-72578514D02*
X122162780Y-72607085D01*
X122162780Y-72607085D02*
X122191352Y-72664228D01*
X121134208Y-72921371D02*
X121134208Y-72321371D01*
X121134208Y-72321371D02*
X120934208Y-72749942D01*
X120934208Y-72749942D02*
X120734208Y-72321371D01*
X120734208Y-72321371D02*
X120734208Y-72921371D01*
X120477066Y-72749942D02*
X120191352Y-72749942D01*
X120534209Y-72921371D02*
X120334209Y-72321371D01*
X120334209Y-72321371D02*
X120134209Y-72921371D01*
X119905637Y-72892800D02*
X119905637Y-72921371D01*
X119905637Y-72921371D02*
X119934208Y-72978514D01*
X119934208Y-72978514D02*
X119962780Y-73007085D01*
X119248494Y-72521371D02*
X119105637Y-72921371D01*
X119105637Y-72921371D02*
X118962780Y-72521371D01*
X118419923Y-72921371D02*
X118762780Y-72921371D01*
X118591351Y-72921371D02*
X118591351Y-72321371D01*
X118591351Y-72321371D02*
X118648494Y-72407085D01*
X118648494Y-72407085D02*
X118705637Y-72464228D01*
X118705637Y-72464228D02*
X118762780Y-72492800D01*
X118162779Y-72864228D02*
X118134208Y-72892800D01*
X118134208Y-72892800D02*
X118162779Y-72921371D01*
X118162779Y-72921371D02*
X118191351Y-72892800D01*
X118191351Y-72892800D02*
X118162779Y-72864228D01*
X118162779Y-72864228D02*
X118162779Y-72921371D01*
X117905637Y-72378514D02*
X117877065Y-72349942D01*
X117877065Y-72349942D02*
X117819923Y-72321371D01*
X117819923Y-72321371D02*
X117677065Y-72321371D01*
X117677065Y-72321371D02*
X117619923Y-72349942D01*
X117619923Y-72349942D02*
X117591351Y-72378514D01*
X117591351Y-72378514D02*
X117562780Y-72435657D01*
X117562780Y-72435657D02*
X117562780Y-72492800D01*
X117562780Y-72492800D02*
X117591351Y-72578514D01*
X117591351Y-72578514D02*
X117934208Y-72921371D01*
X117934208Y-72921371D02*
X117562780Y-72921371D01*
D11*
X106659774Y-75372257D02*
X106802632Y-75300828D01*
X106802632Y-75300828D02*
X107016917Y-75300828D01*
X107016917Y-75300828D02*
X107231203Y-75372257D01*
X107231203Y-75372257D02*
X107374060Y-75515114D01*
X107374060Y-75515114D02*
X107445489Y-75657971D01*
X107445489Y-75657971D02*
X107516917Y-75943685D01*
X107516917Y-75943685D02*
X107516917Y-76157971D01*
X107516917Y-76157971D02*
X107445489Y-76443685D01*
X107445489Y-76443685D02*
X107374060Y-76586542D01*
X107374060Y-76586542D02*
X107231203Y-76729400D01*
X107231203Y-76729400D02*
X107016917Y-76800828D01*
X107016917Y-76800828D02*
X106874060Y-76800828D01*
X106874060Y-76800828D02*
X106659774Y-76729400D01*
X106659774Y-76729400D02*
X106588346Y-76657971D01*
X106588346Y-76657971D02*
X106588346Y-76157971D01*
X106588346Y-76157971D02*
X106874060Y-76157971D01*
X105945489Y-76800828D02*
X105945489Y-75300828D01*
X105945489Y-75300828D02*
X105088346Y-76800828D01*
X105088346Y-76800828D02*
X105088346Y-75300828D01*
X104374060Y-76800828D02*
X104374060Y-75300828D01*
X104374060Y-75300828D02*
X104016917Y-75300828D01*
X104016917Y-75300828D02*
X103802631Y-75372257D01*
X103802631Y-75372257D02*
X103659774Y-75515114D01*
X103659774Y-75515114D02*
X103588345Y-75657971D01*
X103588345Y-75657971D02*
X103516917Y-75943685D01*
X103516917Y-75943685D02*
X103516917Y-76157971D01*
X103516917Y-76157971D02*
X103588345Y-76443685D01*
X103588345Y-76443685D02*
X103659774Y-76586542D01*
X103659774Y-76586542D02*
X103802631Y-76729400D01*
X103802631Y-76729400D02*
X104016917Y-76800828D01*
X104016917Y-76800828D02*
X104374060Y-76800828D01*
X125619774Y-79272257D02*
X125762632Y-79200828D01*
X125762632Y-79200828D02*
X125976917Y-79200828D01*
X125976917Y-79200828D02*
X126191203Y-79272257D01*
X126191203Y-79272257D02*
X126334060Y-79415114D01*
X126334060Y-79415114D02*
X126405489Y-79557971D01*
X126405489Y-79557971D02*
X126476917Y-79843685D01*
X126476917Y-79843685D02*
X126476917Y-80057971D01*
X126476917Y-80057971D02*
X126405489Y-80343685D01*
X126405489Y-80343685D02*
X126334060Y-80486542D01*
X126334060Y-80486542D02*
X126191203Y-80629400D01*
X126191203Y-80629400D02*
X125976917Y-80700828D01*
X125976917Y-80700828D02*
X125834060Y-80700828D01*
X125834060Y-80700828D02*
X125619774Y-80629400D01*
X125619774Y-80629400D02*
X125548346Y-80557971D01*
X125548346Y-80557971D02*
X125548346Y-80057971D01*
X125548346Y-80057971D02*
X125834060Y-80057971D01*
X124905489Y-80700828D02*
X124905489Y-79200828D01*
X124905489Y-79200828D02*
X124048346Y-80700828D01*
X124048346Y-80700828D02*
X124048346Y-79200828D01*
X123334060Y-80700828D02*
X123334060Y-79200828D01*
X123334060Y-79200828D02*
X122976917Y-79200828D01*
X122976917Y-79200828D02*
X122762631Y-79272257D01*
X122762631Y-79272257D02*
X122619774Y-79415114D01*
X122619774Y-79415114D02*
X122548345Y-79557971D01*
X122548345Y-79557971D02*
X122476917Y-79843685D01*
X122476917Y-79843685D02*
X122476917Y-80057971D01*
X122476917Y-80057971D02*
X122548345Y-80343685D01*
X122548345Y-80343685D02*
X122619774Y-80486542D01*
X122619774Y-80486542D02*
X122762631Y-80629400D01*
X122762631Y-80629400D02*
X122976917Y-80700828D01*
X122976917Y-80700828D02*
X123334060Y-80700828D01*
X115059774Y-72900828D02*
X114559774Y-74400828D01*
X114559774Y-74400828D02*
X114059774Y-72900828D01*
X113059775Y-73615114D02*
X112845489Y-73686542D01*
X112845489Y-73686542D02*
X112774060Y-73757971D01*
X112774060Y-73757971D02*
X112702632Y-73900828D01*
X112702632Y-73900828D02*
X112702632Y-74115114D01*
X112702632Y-74115114D02*
X112774060Y-74257971D01*
X112774060Y-74257971D02*
X112845489Y-74329400D01*
X112845489Y-74329400D02*
X112988346Y-74400828D01*
X112988346Y-74400828D02*
X113559775Y-74400828D01*
X113559775Y-74400828D02*
X113559775Y-72900828D01*
X113559775Y-72900828D02*
X113059775Y-72900828D01*
X113059775Y-72900828D02*
X112916918Y-72972257D01*
X112916918Y-72972257D02*
X112845489Y-73043685D01*
X112845489Y-73043685D02*
X112774060Y-73186542D01*
X112774060Y-73186542D02*
X112774060Y-73329400D01*
X112774060Y-73329400D02*
X112845489Y-73472257D01*
X112845489Y-73472257D02*
X112916918Y-73543685D01*
X112916918Y-73543685D02*
X113059775Y-73615114D01*
X113059775Y-73615114D02*
X113559775Y-73615114D01*
X112059775Y-72900828D02*
X112059775Y-74115114D01*
X112059775Y-74115114D02*
X111988346Y-74257971D01*
X111988346Y-74257971D02*
X111916918Y-74329400D01*
X111916918Y-74329400D02*
X111774060Y-74400828D01*
X111774060Y-74400828D02*
X111488346Y-74400828D01*
X111488346Y-74400828D02*
X111345489Y-74329400D01*
X111345489Y-74329400D02*
X111274060Y-74257971D01*
X111274060Y-74257971D02*
X111202632Y-74115114D01*
X111202632Y-74115114D02*
X111202632Y-72900828D01*
X110559774Y-74329400D02*
X110345489Y-74400828D01*
X110345489Y-74400828D02*
X109988346Y-74400828D01*
X109988346Y-74400828D02*
X109845489Y-74329400D01*
X109845489Y-74329400D02*
X109774060Y-74257971D01*
X109774060Y-74257971D02*
X109702631Y-74115114D01*
X109702631Y-74115114D02*
X109702631Y-73972257D01*
X109702631Y-73972257D02*
X109774060Y-73829400D01*
X109774060Y-73829400D02*
X109845489Y-73757971D01*
X109845489Y-73757971D02*
X109988346Y-73686542D01*
X109988346Y-73686542D02*
X110274060Y-73615114D01*
X110274060Y-73615114D02*
X110416917Y-73543685D01*
X110416917Y-73543685D02*
X110488346Y-73472257D01*
X110488346Y-73472257D02*
X110559774Y-73329400D01*
X110559774Y-73329400D02*
X110559774Y-73186542D01*
X110559774Y-73186542D02*
X110488346Y-73043685D01*
X110488346Y-73043685D02*
X110416917Y-72972257D01*
X110416917Y-72972257D02*
X110274060Y-72900828D01*
X110274060Y-72900828D02*
X109916917Y-72900828D01*
X109916917Y-72900828D02*
X109702631Y-72972257D01*
X106345489Y-78815114D02*
X106131203Y-78886542D01*
X106131203Y-78886542D02*
X106059774Y-78957971D01*
X106059774Y-78957971D02*
X105988346Y-79100828D01*
X105988346Y-79100828D02*
X105988346Y-79315114D01*
X105988346Y-79315114D02*
X106059774Y-79457971D01*
X106059774Y-79457971D02*
X106131203Y-79529400D01*
X106131203Y-79529400D02*
X106274060Y-79600828D01*
X106274060Y-79600828D02*
X106845489Y-79600828D01*
X106845489Y-79600828D02*
X106845489Y-78100828D01*
X106845489Y-78100828D02*
X106345489Y-78100828D01*
X106345489Y-78100828D02*
X106202632Y-78172257D01*
X106202632Y-78172257D02*
X106131203Y-78243685D01*
X106131203Y-78243685D02*
X106059774Y-78386542D01*
X106059774Y-78386542D02*
X106059774Y-78529400D01*
X106059774Y-78529400D02*
X106131203Y-78672257D01*
X106131203Y-78672257D02*
X106202632Y-78743685D01*
X106202632Y-78743685D02*
X106345489Y-78815114D01*
X106345489Y-78815114D02*
X106845489Y-78815114D01*
X104702632Y-79600828D02*
X104702632Y-78815114D01*
X104702632Y-78815114D02*
X104774060Y-78672257D01*
X104774060Y-78672257D02*
X104916917Y-78600828D01*
X104916917Y-78600828D02*
X105202632Y-78600828D01*
X105202632Y-78600828D02*
X105345489Y-78672257D01*
X104702632Y-79529400D02*
X104845489Y-79600828D01*
X104845489Y-79600828D02*
X105202632Y-79600828D01*
X105202632Y-79600828D02*
X105345489Y-79529400D01*
X105345489Y-79529400D02*
X105416917Y-79386542D01*
X105416917Y-79386542D02*
X105416917Y-79243685D01*
X105416917Y-79243685D02*
X105345489Y-79100828D01*
X105345489Y-79100828D02*
X105202632Y-79029400D01*
X105202632Y-79029400D02*
X104845489Y-79029400D01*
X104845489Y-79029400D02*
X104702632Y-78957971D01*
X104202631Y-78600828D02*
X103631203Y-78600828D01*
X103988346Y-78100828D02*
X103988346Y-79386542D01*
X103988346Y-79386542D02*
X103916917Y-79529400D01*
X103916917Y-79529400D02*
X103774060Y-79600828D01*
X103774060Y-79600828D02*
X103631203Y-79600828D01*
X126359774Y-76600828D02*
X125859774Y-78100828D01*
X125859774Y-78100828D02*
X125359774Y-76600828D01*
X124002632Y-77957971D02*
X124074060Y-78029400D01*
X124074060Y-78029400D02*
X124288346Y-78100828D01*
X124288346Y-78100828D02*
X124431203Y-78100828D01*
X124431203Y-78100828D02*
X124645489Y-78029400D01*
X124645489Y-78029400D02*
X124788346Y-77886542D01*
X124788346Y-77886542D02*
X124859775Y-77743685D01*
X124859775Y-77743685D02*
X124931203Y-77457971D01*
X124931203Y-77457971D02*
X124931203Y-77243685D01*
X124931203Y-77243685D02*
X124859775Y-76957971D01*
X124859775Y-76957971D02*
X124788346Y-76815114D01*
X124788346Y-76815114D02*
X124645489Y-76672257D01*
X124645489Y-76672257D02*
X124431203Y-76600828D01*
X124431203Y-76600828D02*
X124288346Y-76600828D01*
X124288346Y-76600828D02*
X124074060Y-76672257D01*
X124074060Y-76672257D02*
X124002632Y-76743685D01*
X122502632Y-77957971D02*
X122574060Y-78029400D01*
X122574060Y-78029400D02*
X122788346Y-78100828D01*
X122788346Y-78100828D02*
X122931203Y-78100828D01*
X122931203Y-78100828D02*
X123145489Y-78029400D01*
X123145489Y-78029400D02*
X123288346Y-77886542D01*
X123288346Y-77886542D02*
X123359775Y-77743685D01*
X123359775Y-77743685D02*
X123431203Y-77457971D01*
X123431203Y-77457971D02*
X123431203Y-77243685D01*
X123431203Y-77243685D02*
X123359775Y-76957971D01*
X123359775Y-76957971D02*
X123288346Y-76815114D01*
X123288346Y-76815114D02*
X123145489Y-76672257D01*
X123145489Y-76672257D02*
X122931203Y-76600828D01*
X122931203Y-76600828D02*
X122788346Y-76600828D01*
X122788346Y-76600828D02*
X122574060Y-76672257D01*
X122574060Y-76672257D02*
X122502632Y-76743685D01*
X126449774Y-74000828D02*
X125949774Y-75500828D01*
X125949774Y-75500828D02*
X125449774Y-74000828D01*
X124092632Y-75357971D02*
X124164060Y-75429400D01*
X124164060Y-75429400D02*
X124378346Y-75500828D01*
X124378346Y-75500828D02*
X124521203Y-75500828D01*
X124521203Y-75500828D02*
X124735489Y-75429400D01*
X124735489Y-75429400D02*
X124878346Y-75286542D01*
X124878346Y-75286542D02*
X124949775Y-75143685D01*
X124949775Y-75143685D02*
X125021203Y-74857971D01*
X125021203Y-74857971D02*
X125021203Y-74643685D01*
X125021203Y-74643685D02*
X124949775Y-74357971D01*
X124949775Y-74357971D02*
X124878346Y-74215114D01*
X124878346Y-74215114D02*
X124735489Y-74072257D01*
X124735489Y-74072257D02*
X124521203Y-74000828D01*
X124521203Y-74000828D02*
X124378346Y-74000828D01*
X124378346Y-74000828D02*
X124164060Y-74072257D01*
X124164060Y-74072257D02*
X124092632Y-74143685D01*
X122592632Y-75357971D02*
X122664060Y-75429400D01*
X122664060Y-75429400D02*
X122878346Y-75500828D01*
X122878346Y-75500828D02*
X123021203Y-75500828D01*
X123021203Y-75500828D02*
X123235489Y-75429400D01*
X123235489Y-75429400D02*
X123378346Y-75286542D01*
X123378346Y-75286542D02*
X123449775Y-75143685D01*
X123449775Y-75143685D02*
X123521203Y-74857971D01*
X123521203Y-74857971D02*
X123521203Y-74643685D01*
X123521203Y-74643685D02*
X123449775Y-74357971D01*
X123449775Y-74357971D02*
X123378346Y-74215114D01*
X123378346Y-74215114D02*
X123235489Y-74072257D01*
X123235489Y-74072257D02*
X123021203Y-74000828D01*
X123021203Y-74000828D02*
X122878346Y-74000828D01*
X122878346Y-74000828D02*
X122664060Y-74072257D01*
X122664060Y-74072257D02*
X122592632Y-74143685D01*
X111745489Y-81015114D02*
X111531203Y-81086542D01*
X111531203Y-81086542D02*
X111459774Y-81157971D01*
X111459774Y-81157971D02*
X111388346Y-81300828D01*
X111388346Y-81300828D02*
X111388346Y-81515114D01*
X111388346Y-81515114D02*
X111459774Y-81657971D01*
X111459774Y-81657971D02*
X111531203Y-81729400D01*
X111531203Y-81729400D02*
X111674060Y-81800828D01*
X111674060Y-81800828D02*
X112245489Y-81800828D01*
X112245489Y-81800828D02*
X112245489Y-80300828D01*
X112245489Y-80300828D02*
X111745489Y-80300828D01*
X111745489Y-80300828D02*
X111602632Y-80372257D01*
X111602632Y-80372257D02*
X111531203Y-80443685D01*
X111531203Y-80443685D02*
X111459774Y-80586542D01*
X111459774Y-80586542D02*
X111459774Y-80729400D01*
X111459774Y-80729400D02*
X111531203Y-80872257D01*
X111531203Y-80872257D02*
X111602632Y-80943685D01*
X111602632Y-80943685D02*
X111745489Y-81015114D01*
X111745489Y-81015114D02*
X112245489Y-81015114D01*
X110745489Y-81229400D02*
X109602632Y-81229400D01*
X110174060Y-81800828D02*
X110174060Y-80657971D01*
M02*
