M48
; DRILL file {KiCad 7.0.8} date Wed Dec 11 19:52:59 2024
; FORMAT={-:-/ absolute / metric / decimal}
; #@! TF.CreationDate,2024-12-11T19:52:59+01:00
; #@! TF.GenerationSoftware,Kicad,Pcbnew,7.0.8
; #@! TF.FileFunction,MixedPlating,1,2
FMAT,2
METRIC
; #@! TA.AperFunction,Plated,PTH,ViaDrill
T1C0.400
; #@! TA.AperFunction,Plated,PTH,ComponentDrill
T2C1.000
; #@! TA.AperFunction,Plated,PTH,ComponentDrill
T3C2.200
%
G90
G05
T1
X104.75Y-72.0
X105.75Y-72.0
X109.75Y-76.0
X110.0Y-83.0
X110.25Y-72.0
X110.5Y-79.0
X111.0Y-83.0
X112.0Y-83.0
X112.8Y-77.9
X113.0Y-72.0
X113.0Y-83.0
X114.0Y-83.0
X114.8Y-79.822
X115.0Y-83.0
X115.5Y-77.8
X115.75Y-76.4
X116.0Y-83.0
X119.1Y-82.2
X119.38Y-74.168
X123.4Y-82.3
X123.9Y-81.4
X124.4Y-82.3
X124.9Y-81.4
X125.4Y-82.3
X125.9Y-81.4
X126.4Y-82.3
X126.9Y-81.4
X127.4Y-82.3
X128.4Y-82.3
X129.4Y-82.3
T2
X105.41Y-73.66
X105.41Y-81.28
X107.95Y-73.66
X107.95Y-81.28
X128.23Y-74.915
X128.23Y-77.455
X128.23Y-79.995
T3
X118.3Y-78.1
T0
M30
